<?xml version="1.0" standalone="no"?>
<!DOCTYPE svg PUBLIC "-//W3C//DTD SVG 20010904//EN"
 "http://www.w3.org/TR/2001/REC-SVG-20010904/DTD/svg10.dtd">
<svg version="1.0" xmlns="http://www.w3.org/2000/svg"
 width="1402.000000pt" height="1408.000000pt" viewBox="0 0 1402.000000 1408.000000"
 preserveAspectRatio="xMidYMid meet">

<g transform="translate(0.000000,1408.000000) scale(0.100000,-0.100000)"
fill="#000000" stroke="none">
<path d="M6460 13980 c0 -53 2 -60 20 -60 13 0 20 -7 20 -20 0 -13 7 -20 20
-20 13 0 20 7 20 20 0 13 7 20 20 20 13 0 20 7 20 20 0 13 7 20 20 20 13 0 20
7 20 20 0 13 -7 20 -20 20 -13 0 -20 7 -20 20 0 18 -7 20 -60 20 l-60 0 0 -60z"/>
<path d="M6820 13500 c0 -17 -7 -20 -40 -20 -33 0 -40 -3 -40 -20 0 -17 -7
-20 -40 -20 -33 0 -40 -3 -40 -20 0 -13 -7 -20 -20 -20 -13 0 -20 -7 -20 -20
0 -13 -7 -20 -20 -20 -13 0 -20 -7 -20 -20 0 -13 -7 -20 -20 -20 -13 0 -20 7
-20 20 0 19 -7 20 -100 20 -93 0 -100 -1 -100 -20 0 -18 -7 -20 -60 -20 -53 0
-60 -2 -60 -20 0 -17 -7 -20 -40 -20 -33 0 -40 -3 -40 -20 0 -17 -7 -20 -40
-20 -33 0 -40 -3 -40 -20 0 -17 -7 -20 -40 -20 -33 0 -40 -3 -40 -20 0 -18 -7
-20 -80 -20 -73 0 -80 -2 -80 -20 0 -13 -7 -20 -20 -20 -13 0 -20 -7 -20 -20
0 -13 -7 -20 -20 -20 -13 0 -20 -7 -20 -20 0 -13 -7 -20 -20 -20 -13 0 -20 -7
-20 -20 0 -13 -7 -20 -20 -20 -13 0 -20 -7 -20 -20 0 -13 -7 -20 -20 -20 -17
0 -20 -7 -20 -40 0 -33 -3 -40 -20 -40 -17 0 -20 -7 -20 -40 0 -33 -3 -40 -20
-40 -17 0 -20 -7 -20 -40 0 -33 -3 -40 -20 -40 -17 0 -20 -7 -20 -40 0 -33 -3
-40 -20 -40 -19 0 -20 -7 -20 -120 0 -113 1 -120 20 -120 18 0 20 -7 20 -60 0
-53 2 -60 20 -60 18 0 20 -7 20 -80 0 -73 -2 -80 -20 -80 -13 0 -20 -7 -20
-20 0 -13 -7 -20 -20 -20 -13 0 -20 -7 -20 -20 0 -13 -7 -20 -20 -20 -13 0
-20 -7 -20 -20 0 -13 -7 -20 -20 -20 -18 0 -20 -7 -20 -60 0 -53 -2 -60 -20
-60 -18 0 -20 -7 -20 -60 0 -53 2 -60 20 -60 18 0 20 -7 20 -80 0 -73 2 -80
20 -80 17 0 20 -7 20 -40 0 -33 3 -40 20 -40 18 0 20 -7 20 -60 0 -53 2 -60
20 -60 17 0 20 -7 20 -40 0 -33 3 -40 20 -40 13 0 20 -7 20 -20 0 -13 7 -20
20 -20 13 0 20 -7 20 -20 0 -13 7 -20 20 -20 13 0 20 -7 20 -20 0 -13 7 -20
20 -20 13 0 20 -7 20 -20 0 -13 7 -20 20 -20 13 0 20 -7 20 -20 0 -17 7 -20
40 -20 33 0 40 -3 40 -20 0 -13 7 -20 20 -20 13 0 20 -7 20 -20 0 -17 7 -20
40 -20 33 0 40 -3 40 -20 0 -13 7 -20 20 -20 13 0 20 -7 20 -20 0 -17 7 -20
40 -20 33 0 40 -3 40 -20 0 -13 7 -20 20 -20 13 0 20 -7 20 -20 0 -17 7 -20
40 -20 33 0 40 -3 40 -20 0 -17 7 -20 40 -20 33 0 40 -3 40 -20 0 -17 7 -20
40 -20 33 0 40 -3 40 -20 0 -17 7 -20 40 -20 33 0 40 -3 40 -20 0 -17 7 -20
40 -20 33 0 40 -3 40 -20 0 -18 7 -20 60 -20 53 0 60 -2 60 -20 0 -19 -7 -20
-120 -20 -113 0 -120 1 -120 20 0 19 -7 20 -120 20 -113 0 -120 1 -120 20 0
20 -7 20 -280 20 -273 0 -280 0 -280 -20 0 -17 -7 -20 -40 -20 l-40 0 0 -80
c0 -73 2 -80 20 -80 13 0 20 -7 20 -20 0 -17 7 -20 40 -20 33 0 40 -3 40 -20
0 -18 7 -20 60 -20 53 0 60 -2 60 -20 0 -19 7 -20 120 -20 113 0 120 -1 120
-20 0 -19 7 -20 160 -20 153 0 160 1 160 20 0 19 7 20 260 20 253 0 260 1 260
20 0 18 7 20 80 20 73 0 80 2 80 20 0 17 7 20 40 20 33 0 40 3 40 20 0 17 7
20 40 20 l40 0 0 40 c0 33 3 40 20 40 19 0 20 -7 20 -200 0 -193 1 -200 20
-200 20 0 20 -7 20 -620 0 -613 0 -620 -20 -620 -20 0 -20 -7 -20 -300 0 -293
0 -300 -20 -300 -20 0 -20 -7 -20 -360 0 -353 0 -360 -20 -360 -20 0 -20 -7
-20 -520 0 -513 0 -520 20 -520 19 0 20 -7 20 -200 0 -193 -1 -200 -20 -200
-17 0 -20 7 -20 40 0 33 -3 40 -20 40 -17 0 -20 7 -20 40 0 33 -3 40 -20 40
-17 0 -20 7 -20 40 0 33 -3 40 -20 40 -17 0 -20 7 -20 40 0 33 -3 40 -20 40
-17 0 -20 7 -20 40 0 33 -3 40 -20 40 -17 0 -20 7 -20 40 0 33 -3 40 -20 40
-17 0 -20 7 -20 40 0 33 -3 40 -20 40 -17 0 -20 7 -20 40 0 33 -3 40 -20 40
-17 0 -20 7 -20 40 0 33 -3 40 -20 40 -17 0 -20 7 -20 40 0 33 -3 40 -20 40
-17 0 -20 7 -20 40 0 33 -3 40 -20 40 -13 0 -20 7 -20 20 0 13 -7 20 -20 20
-17 0 -20 7 -20 40 0 33 -3 40 -20 40 -17 0 -20 7 -20 40 0 33 -3 40 -20 40
-13 0 -20 7 -20 20 0 13 -7 20 -20 20 -17 0 -20 7 -20 40 0 33 -3 40 -20 40
-13 0 -20 7 -20 20 0 13 -7 20 -20 20 -13 0 -20 7 -20 20 0 13 -7 20 -20 20
-17 0 -20 7 -20 40 0 33 -3 40 -20 40 -18 0 -20 7 -20 60 0 53 -2 60 -20 60
-17 0 -20 7 -20 40 0 33 -3 40 -20 40 -18 0 -20 7 -20 80 0 73 -2 80 -20 80
-19 0 -20 7 -20 100 0 93 -1 100 -20 100 -19 0 -20 7 -20 120 0 113 -1 120
-20 120 -19 0 -20 7 -20 120 0 113 -1 120 -20 120 -18 0 -20 7 -20 80 0 73 -2
80 -20 80 -18 0 -20 7 -20 80 0 73 -2 80 -20 80 -18 0 -20 7 -20 60 0 53 -2
60 -20 60 -17 0 -20 7 -20 40 0 33 -3 40 -20 40 -18 0 -20 7 -20 60 0 53 -2
60 -20 60 -17 0 -20 7 -20 40 0 33 -3 40 -20 40 -17 0 -20 7 -20 40 0 33 -3
40 -20 40 -13 0 -20 7 -20 20 0 13 -7 20 -20 20 -17 0 -20 7 -20 40 0 33 -3
40 -20 40 -17 0 -20 7 -20 40 0 33 -3 40 -20 40 -13 0 -20 7 -20 20 0 13 -7
20 -20 20 -17 0 -20 7 -20 40 0 33 -3 40 -20 40 -13 0 -20 7 -20 20 0 13 -7
20 -20 20 -17 0 -20 7 -20 40 0 33 -3 40 -20 40 -13 0 -20 7 -20 20 0 13 -7
20 -20 20 -13 0 -20 7 -20 20 0 13 -7 20 -20 20 -17 0 -20 7 -20 40 0 33 -3
40 -20 40 -13 0 -20 7 -20 20 0 13 -7 20 -20 20 -13 0 -20 7 -20 20 0 13 -7
20 -20 20 -13 0 -20 7 -20 20 0 13 -7 20 -20 20 -17 0 -20 7 -20 40 0 33 -3
40 -20 40 -13 0 -20 7 -20 20 0 13 -7 20 -20 20 -13 0 -20 7 -20 20 0 13 -7
20 -20 20 -13 0 -20 7 -20 20 0 13 -7 20 -20 20 -13 0 -20 7 -20 20 0 13 -7
20 -20 20 -13 0 -20 7 -20 20 0 13 -7 20 -20 20 -17 0 -20 7 -20 40 0 33 -3
40 -20 40 -13 0 -20 7 -20 20 0 13 -7 20 -20 20 -13 0 -20 7 -20 20 0 13 -7
20 -20 20 -13 0 -20 7 -20 20 0 13 -7 20 -20 20 -13 0 -20 7 -20 20 0 17 -7
20 -40 20 -33 0 -40 -3 -40 -20 0 -17 -7 -20 -40 -20 l-40 0 0 -40 c0 -33 -3
-40 -20 -40 -20 0 -20 -7 -20 -400 0 -393 0 -400 20 -400 19 0 20 -7 20 -140
0 -133 1 -140 20 -140 19 0 20 -7 20 -140 0 -133 1 -140 20 -140 19 0 20 -7
20 -100 0 -93 1 -100 20 -100 18 0 20 -7 20 -80 l0 -80 -40 0 c-33 0 -40 3
-40 20 0 13 -7 20 -20 20 -13 0 -20 7 -20 20 0 17 -7 20 -40 20 -33 0 -40 3
-40 20 0 17 -7 20 -40 20 -33 0 -40 3 -40 20 0 17 -7 20 -40 20 -33 0 -40 3
-40 20 0 13 -7 20 -20 20 -13 0 -20 7 -20 20 0 17 -7 20 -40 20 -33 0 -40 3
-40 20 0 13 -7 20 -20 20 -13 0 -20 7 -20 20 0 13 -7 20 -20 20 -13 0 -20 7
-20 20 0 17 -7 20 -40 20 -33 0 -40 3 -40 20 0 13 -7 20 -20 20 -13 0 -20 7
-20 20 0 13 -7 20 -20 20 -17 0 -20 7 -20 40 0 33 -3 40 -20 40 -13 0 -20 7
-20 20 0 13 -7 20 -20 20 -13 0 -20 7 -20 20 0 13 -7 20 -20 20 -13 0 -20 7
-20 20 0 13 -7 20 -20 20 -13 0 -20 7 -20 20 0 18 -7 20 -80 20 -73 0 -80 -2
-80 -20 0 -13 -7 -20 -20 -20 -13 0 -20 -7 -20 -20 0 -13 -7 -20 -20 -20 -20
0 -20 -7 -20 -440 0 -433 0 -440 20 -440 19 0 20 -7 20 -100 0 -93 1 -100 20
-100 18 0 20 -7 20 -60 0 -53 2 -60 20 -60 18 0 20 -7 20 -60 0 -53 2 -60 20
-60 17 0 20 -7 20 -40 0 -33 3 -40 20 -40 17 0 20 -7 20 -40 0 -33 3 -40 20
-40 17 0 20 -7 20 -40 0 -33 3 -40 20 -40 17 0 20 -7 20 -40 0 -33 3 -40 20
-40 13 0 20 -7 20 -20 0 -13 7 -20 20 -20 13 0 20 -7 20 -20 0 -13 7 -20 20
-20 17 0 20 -7 20 -40 0 -33 3 -40 20 -40 13 0 20 -7 20 -20 0 -13 7 -20 20
-20 13 0 20 -7 20 -20 0 -13 7 -20 20 -20 13 0 20 -7 20 -20 0 -13 7 -20 20
-20 13 0 20 -7 20 -20 0 -13 7 -20 20 -20 17 0 20 -7 20 -40 0 -33 3 -40 20
-40 13 0 20 -7 20 -20 0 -13 7 -20 20 -20 13 0 20 -7 20 -20 0 -13 7 -20 20
-20 17 0 20 -7 20 -40 0 -33 3 -40 20 -40 13 0 20 -7 20 -20 0 -13 7 -20 20
-20 17 0 20 -7 20 -40 0 -33 3 -40 20 -40 13 0 20 -7 20 -20 0 -13 7 -20 20
-20 13 0 20 -7 20 -20 0 -13 7 -20 20 -20 13 0 20 -7 20 -20 0 -13 7 -20 20
-20 13 0 20 -7 20 -20 0 -17 7 -20 40 -20 33 0 40 -3 40 -20 0 -13 7 -20 20
-20 13 0 20 -7 20 -20 0 -13 7 -20 20 -20 13 0 20 -7 20 -20 0 -13 7 -20 20
-20 13 0 20 -7 20 -20 0 -17 7 -20 40 -20 33 0 40 -3 40 -20 0 -17 7 -20 40
-20 33 0 40 -3 40 -20 0 -18 7 -20 60 -20 53 0 60 -2 60 -20 0 -18 7 -20 80
-20 73 0 80 -2 80 -20 0 -19 7 -20 160 -20 153 0 160 -1 160 -20 0 -18 7 -20
80 -20 73 0 80 -2 80 -20 0 -13 7 -20 20 -20 13 0 20 -7 20 -20 0 -13 7 -20
20 -20 13 0 20 -7 20 -20 0 -13 7 -20 20 -20 13 0 20 -7 20 -20 0 -13 7 -20
20 -20 13 0 20 -7 20 -20 0 -13 7 -20 20 -20 13 0 20 -7 20 -20 0 -17 7 -20
40 -20 33 0 40 -3 40 -20 0 -18 7 -20 60 -20 53 0 60 -2 60 -20 0 -17 7 -20
40 -20 33 0 40 -3 40 -20 0 -18 7 -20 60 -20 53 0 60 -2 60 -20 0 -17 7 -20
40 -20 33 0 40 -3 40 -20 0 -17 7 -20 40 -20 33 0 40 -3 40 -20 0 -17 7 -20
40 -20 33 0 40 -3 40 -20 0 -17 7 -20 40 -20 33 0 40 -3 40 -20 0 -17 7 -20
40 -20 33 0 40 -3 40 -20 0 -17 7 -20 40 -20 33 0 40 -3 40 -20 0 -17 7 -20
40 -20 33 0 40 -3 40 -20 0 -13 7 -20 20 -20 13 0 20 -7 20 -20 0 -13 7 -20
20 -20 13 0 20 -7 20 -20 0 -13 7 -20 20 -20 13 0 20 -7 20 -20 0 -13 7 -20
20 -20 13 0 20 -7 20 -20 0 -13 7 -20 20 -20 13 0 20 -7 20 -20 0 -13 7 -20
20 -20 17 0 20 -7 20 -40 0 -33 3 -40 20 -40 19 0 20 -7 20 -140 0 -133 1
-140 20 -140 19 0 20 -7 20 -100 0 -93 1 -100 20 -100 19 0 20 -7 20 -120 0
-113 1 -120 20 -120 19 0 20 -7 20 -120 0 -113 1 -120 20 -120 19 0 20 -7 20
-120 0 -113 1 -120 20 -120 19 0 20 -7 20 -140 0 -133 1 -140 20 -140 19 0 20
-7 20 -160 0 -153 1 -160 20 -160 17 0 20 -7 20 -40 0 -33 -3 -40 -20 -40 -13
0 -20 7 -20 20 0 13 -7 20 -20 20 -13 0 -20 7 -20 20 0 13 -7 20 -20 20 -13 0
-20 7 -20 20 0 13 -7 20 -20 20 -13 0 -20 7 -20 20 0 17 -7 20 -40 20 -33 0
-40 3 -40 20 0 13 -7 20 -20 20 -13 0 -20 7 -20 20 0 17 -7 20 -40 20 -33 0
-40 3 -40 20 0 18 -7 20 -60 20 -53 0 -60 2 -60 20 0 17 -7 20 -40 20 -33 0
-40 3 -40 20 0 18 -7 20 -60 20 -53 0 -60 2 -60 20 0 18 -7 20 -60 20 -53 0
-60 2 -60 20 0 17 -7 20 -40 20 -33 0 -40 3 -40 20 0 18 -7 20 -60 20 -53 0
-60 2 -60 20 0 17 -7 20 -40 20 -33 0 -40 3 -40 20 0 17 -7 20 -40 20 -33 0
-40 3 -40 20 0 18 -7 20 -60 20 -53 0 -60 2 -60 20 0 17 -7 20 -40 20 -33 0
-40 3 -40 20 0 17 -7 20 -40 20 -33 0 -40 3 -40 20 0 17 -7 20 -40 20 -33 0
-40 3 -40 20 0 13 -7 20 -20 20 -18 0 -20 7 -20 80 0 73 -2 80 -20 80 -19 0
-20 7 -20 100 0 93 -1 100 -20 100 -18 0 -20 7 -20 80 0 73 -2 80 -20 80 -18
0 -20 7 -20 60 0 53 -2 60 -20 60 -18 0 -20 7 -20 60 0 53 -2 60 -20 60 -17 0
-20 7 -20 40 0 33 -3 40 -20 40 -17 0 -20 7 -20 40 0 33 -3 40 -20 40 -17 0
-20 7 -20 40 0 33 -3 40 -20 40 -13 0 -20 7 -20 20 0 13 -7 20 -20 20 -17 0
-20 7 -20 40 0 33 -3 40 -20 40 -17 0 -20 7 -20 40 0 33 -3 40 -20 40 -17 0
-20 7 -20 40 0 33 -3 40 -20 40 -17 0 -20 7 -20 40 0 33 -3 40 -20 40 -13 0
-20 7 -20 20 0 13 -7 20 -20 20 -13 0 -20 7 -20 20 0 13 -7 20 -20 20 -17 0
-20 7 -20 40 0 33 -3 40 -20 40 -13 0 -20 7 -20 20 0 17 -7 20 -40 20 -33 0
-40 3 -40 20 0 13 -7 20 -20 20 -13 0 -20 7 -20 20 0 13 -7 20 -20 20 -13 0
-20 7 -20 20 0 13 -7 20 -20 20 -13 0 -20 7 -20 20 0 13 -7 20 -20 20 -13 0
-20 7 -20 20 0 13 -7 20 -20 20 -13 0 -20 7 -20 20 0 13 -7 20 -20 20 -13 0
-20 7 -20 20 0 13 -7 20 -20 20 -13 0 -20 7 -20 20 0 13 -7 20 -20 20 -13 0
-20 7 -20 20 0 17 -7 20 -40 20 -33 0 -40 3 -40 20 0 17 -7 20 -40 20 -33 0
-40 3 -40 20 0 17 -7 20 -40 20 -33 0 -40 3 -40 20 0 13 -7 20 -20 20 -13 0
-20 7 -20 20 0 17 -7 20 -40 20 -33 0 -40 3 -40 20 0 13 -7 20 -20 20 -13 0
-20 7 -20 20 0 17 -7 20 -40 20 -33 0 -40 3 -40 20 0 13 -7 20 -20 20 -13 0
-20 7 -20 20 0 13 -7 20 -20 20 -13 0 -20 7 -20 20 0 13 -7 20 -20 20 -13 0
-20 7 -20 20 0 17 -7 20 -40 20 -33 0 -40 3 -40 20 0 13 -7 20 -20 20 -13 0
-20 7 -20 20 0 18 -7 20 -80 20 -73 0 -80 2 -80 20 0 17 -7 20 -40 20 -33 0
-40 -3 -40 -20 0 -19 -7 -20 -120 -20 -113 0 -120 -1 -120 -20 0 -18 -7 -20
-60 -20 -53 0 -60 2 -60 20 0 18 -7 20 -60 20 -53 0 -60 2 -60 20 0 13 -7 20
-20 20 -13 0 -20 7 -20 20 0 13 -7 20 -20 20 -13 0 -20 7 -20 20 0 17 -7 20
-40 20 -33 0 -40 3 -40 20 0 18 -7 20 -80 20 -73 0 -80 -2 -80 -20 0 -13 -7
-20 -20 -20 -13 0 -20 -7 -20 -20 0 -13 -7 -20 -20 -20 -19 0 -20 -7 -20 -120
0 -113 1 -120 20 -120 18 0 20 -7 20 -60 0 -53 2 -60 20 -60 18 0 20 -7 20
-60 0 -53 2 -60 20 -60 17 0 20 -7 20 -40 0 -33 3 -40 20 -40 17 0 20 -7 20
-40 0 -33 3 -40 20 -40 13 0 20 -7 20 -20 0 -13 7 -20 20 -20 17 0 20 -7 20
-40 0 -33 3 -40 20 -40 17 0 20 -7 20 -40 0 -33 3 -40 20 -40 13 0 20 -7 20
-20 0 -13 7 -20 20 -20 13 0 20 -7 20 -20 0 -13 7 -20 20 -20 17 0 20 -7 20
-40 0 -33 3 -40 20 -40 13 0 20 -7 20 -20 0 -13 7 -20 20 -20 13 0 20 -7 20
-20 0 -13 7 -20 20 -20 13 0 20 -7 20 -20 0 -13 7 -20 20 -20 13 0 20 -7 20
-20 0 -13 7 -20 20 -20 13 0 20 -7 20 -20 0 -13 7 -20 20 -20 13 0 20 -7 20
-20 0 -13 7 -20 20 -20 13 0 20 -7 20 -20 0 -13 7 -20 20 -20 13 0 20 -7 20
-20 0 -13 7 -20 20 -20 17 0 20 -7 20 -40 0 -33 3 -40 20 -40 17 0 20 -7 20
-40 0 -33 3 -40 20 -40 17 0 20 -7 20 -40 0 -33 3 -40 20 -40 17 0 20 -7 20
-40 0 -33 3 -40 20 -40 13 0 20 -7 20 -20 0 -13 7 -20 20 -20 13 0 20 -7 20
-20 0 -13 7 -20 20 -20 13 0 20 -7 20 -20 0 -17 7 -20 40 -20 33 0 40 -3 40
-20 0 -17 7 -20 40 -20 33 0 40 -3 40 -20 0 -17 7 -20 40 -20 33 0 40 -3 40
-20 0 -17 7 -20 40 -20 33 0 40 -3 40 -20 0 -17 7 -20 40 -20 33 0 40 -3 40
-20 0 -13 7 -20 20 -20 13 0 20 -7 20 -20 0 -17 7 -20 40 -20 33 0 40 -3 40
-20 0 -17 7 -20 40 -20 33 0 40 -3 40 -20 0 -13 7 -20 20 -20 13 0 20 -7 20
-20 0 -17 7 -20 40 -20 33 0 40 -3 40 -20 0 -13 7 -20 20 -20 13 0 20 -7 20
-20 0 -13 7 -20 20 -20 13 0 20 -7 20 -20 0 -17 7 -20 40 -20 33 0 40 -3 40
-20 0 -17 7 -20 40 -20 33 0 40 -3 40 -20 0 -17 7 -20 40 -20 33 0 40 -3 40
-20 0 -17 7 -20 40 -20 33 0 40 -3 40 -20 0 -18 7 -20 60 -20 53 0 60 -2 60
-20 0 -19 7 -20 140 -20 133 0 140 -1 140 -20 0 -19 7 -20 140 -20 133 0 140
-1 140 -20 0 -17 7 -20 40 -20 33 0 40 -3 40 -20 0 -17 7 -20 40 -20 33 0 40
-3 40 -20 0 -17 7 -20 40 -20 33 0 40 -3 40 -20 0 -17 7 -20 40 -20 33 0 40
-3 40 -20 0 -17 7 -20 40 -20 33 0 40 -3 40 -20 0 -18 7 -20 60 -20 53 0 60
-2 60 -20 0 -17 7 -20 40 -20 33 0 40 -3 40 -20 0 -18 7 -20 60 -20 53 0 60
-2 60 -20 0 -17 7 -20 40 -20 33 0 40 -3 40 -20 0 -18 7 -20 60 -20 53 0 60
-2 60 -20 0 -17 7 -20 40 -20 33 0 40 -3 40 -20 0 -18 7 -20 60 -20 53 0 60
-2 60 -20 0 -18 7 -20 60 -20 53 0 60 -2 60 -20 0 -17 7 -20 40 -20 33 0 40
-3 40 -20 0 -13 7 -20 20 -20 13 0 20 -7 20 -20 0 -17 7 -20 40 -20 33 0 40
-3 40 -20 0 -13 7 -20 20 -20 13 0 20 -7 20 -20 0 -13 7 -20 20 -20 13 0 20
-7 20 -20 0 -13 7 -20 20 -20 13 0 20 -7 20 -20 0 -13 7 -20 20 -20 17 0 20
-7 20 -40 0 -33 3 -40 20 -40 19 0 20 -7 20 -140 0 -133 1 -140 20 -140 20 0
20 -7 20 -380 0 -373 0 -380 -20 -380 -13 0 -20 -7 -20 -20 0 -13 7 -20 20
-20 13 0 20 -7 20 -20 0 -13 -7 -20 -20 -20 -19 0 -20 -7 -20 -240 0 -233 -1
-240 -20 -240 -13 0 -20 7 -20 20 0 13 -7 20 -20 20 -17 0 -20 7 -20 40 0 33
-3 40 -20 40 -17 0 -20 7 -20 40 0 33 -3 40 -20 40 -17 0 -20 7 -20 40 0 33
-3 40 -20 40 -13 0 -20 7 -20 20 0 13 -7 20 -20 20 -13 0 -20 7 -20 20 0 13
-7 20 -20 20 -13 0 -20 7 -20 20 0 13 -7 20 -20 20 -17 0 -20 7 -20 40 0 33
-3 40 -20 40 -13 0 -20 7 -20 20 0 17 -7 20 -40 20 -33 0 -40 3 -40 20 0 13
-7 20 -20 20 -13 0 -20 7 -20 20 0 13 -7 20 -20 20 -13 0 -20 7 -20 20 0 13
-7 20 -20 20 -13 0 -20 7 -20 20 0 17 -7 20 -40 20 l-40 0 0 60 c0 53 -2 60
-20 60 -17 0 -20 7 -20 40 0 33 -3 40 -20 40 -18 0 -20 7 -20 60 0 53 -2 60
-20 60 -18 0 -20 7 -20 60 0 53 -2 60 -20 60 -13 0 -20 7 -20 20 0 13 -7 20
-20 20 -17 0 -20 7 -20 40 0 33 -3 40 -20 40 -13 0 -20 7 -20 20 0 13 -7 20
-20 20 -13 0 -20 7 -20 20 0 13 -7 20 -20 20 -17 0 -20 7 -20 40 0 33 -3 40
-20 40 -13 0 -20 7 -20 20 0 13 -7 20 -20 20 -13 0 -20 7 -20 20 0 13 -7 20
-20 20 -13 0 -20 7 -20 20 0 13 -7 20 -20 20 -13 0 -20 7 -20 20 0 17 -7 20
-40 20 -33 0 -40 3 -40 20 0 18 -7 20 -60 20 -53 0 -60 2 -60 20 0 19 -7 20
-100 20 -93 0 -100 1 -100 20 0 20 -7 20 -440 20 -433 0 -440 0 -440 -20 0
-13 -7 -20 -20 -20 -13 0 -20 -7 -20 -20 0 -13 -7 -20 -20 -20 -18 0 -20 -7
-20 -60 0 -53 2 -60 20 -60 13 0 20 -7 20 -20 0 -17 7 -20 40 -20 33 0 40 -3
40 -20 0 -17 7 -20 40 -20 33 0 40 -3 40 -20 0 -13 7 -20 20 -20 13 0 20 -7
20 -20 0 -13 7 -20 20 -20 13 0 20 -7 20 -20 0 -13 7 -20 20 -20 13 0 20 -7
20 -20 0 -13 7 -20 20 -20 13 0 20 -7 20 -20 0 -13 7 -20 20 -20 13 0 20 -7
20 -20 0 -13 7 -20 20 -20 13 0 20 -7 20 -20 0 -13 7 -20 20 -20 13 0 20 -7
20 -20 0 -13 7 -20 20 -20 13 0 20 -7 20 -20 0 -13 7 -20 20 -20 13 0 20 -7
20 -20 0 -17 7 -20 40 -20 33 0 40 -3 40 -20 0 -19 7 -20 120 -20 113 0 120
-1 120 -20 0 -17 7 -20 40 -20 33 0 40 -3 40 -20 0 -17 7 -20 40 -20 33 0 40
-3 40 -20 0 -13 7 -20 20 -20 13 0 20 -7 20 -20 0 -17 7 -20 40 -20 33 0 40
-3 40 -20 0 -17 7 -20 40 -20 33 0 40 -3 40 -20 0 -19 7 -20 100 -20 93 0 100
-1 100 -20 0 -19 7 -20 180 -20 173 0 180 -1 180 -20 0 -17 7 -20 40 -20 33 0
40 -3 40 -20 0 -13 7 -20 20 -20 13 0 20 -7 20 -20 0 -13 7 -20 20 -20 13 0
20 -7 20 -20 0 -13 7 -20 20 -20 13 0 20 -7 20 -20 0 -17 7 -20 40 -20 33 0
40 -3 40 -20 0 -13 7 -20 20 -20 17 0 20 -7 20 -40 0 -33 3 -40 20 -40 13 0
20 -7 20 -20 0 -13 7 -20 20 -20 13 0 20 -7 20 -20 0 -13 7 -20 20 -20 13 0
20 -7 20 -20 0 -13 7 -20 20 -20 17 0 20 -7 20 -40 0 -33 3 -40 20 -40 17 0
20 -7 20 -40 0 -33 3 -40 20 -40 17 0 20 -7 20 -40 0 -33 3 -40 20 -40 17 0
20 -7 20 -40 0 -33 3 -40 20 -40 18 0 20 -7 20 -60 0 -53 2 -60 20 -60 17 0
20 -7 20 -40 0 -33 -3 -40 -20 -40 -20 0 -20 -7 -20 -300 0 -293 0 -300 -20
-300 -20 0 -20 -7 -20 -360 l0 -360 40 0 40 0 0 480 c0 473 0 480 20 480 20 0
20 7 20 320 0 313 0 320 20 320 20 0 20 7 20 560 l0 560 120 0 c113 0 120 -1
120 -20 0 -19 7 -20 140 -20 133 0 140 -1 140 -20 0 -18 7 -20 60 -20 53 0 60
-2 60 -20 0 -17 7 -20 40 -20 33 0 40 -3 40 -20 0 -18 7 -20 60 -20 53 0 60
-2 60 -20 0 -18 7 -20 60 -20 53 0 60 -2 60 -20 0 -19 7 -20 100 -20 93 0 100
1 100 20 0 17 7 20 40 20 33 0 40 3 40 20 0 17 7 20 40 20 33 0 40 3 40 20 0
17 7 20 40 20 33 0 40 3 40 20 0 18 7 20 60 20 53 0 60 2 60 20 0 19 7 20 100
20 93 0 100 1 100 20 0 17 7 20 40 20 33 0 40 3 40 20 0 13 7 20 20 20 13 0
20 7 20 20 0 13 7 20 20 20 13 0 20 7 20 20 0 13 7 20 20 20 13 0 20 7 20 20
0 13 7 20 20 20 13 0 20 7 20 20 0 17 7 20 40 20 33 0 40 3 40 20 0 13 7 20
20 20 13 0 20 7 20 20 0 13 7 20 20 20 13 0 20 7 20 20 0 13 7 20 20 20 13 0
20 7 20 20 0 13 7 20 20 20 17 0 20 7 20 40 0 33 3 40 20 40 13 0 20 7 20 20
0 13 7 20 20 20 17 0 20 7 20 40 0 33 3 40 20 40 17 0 20 7 20 40 0 33 3 40
20 40 17 0 20 7 20 40 0 33 3 40 20 40 18 0 20 7 20 80 0 73 2 80 20 80 18 0
20 7 20 80 0 73 2 80 20 80 19 0 20 7 20 120 0 113 -1 120 -20 120 -18 0 -20
7 -20 60 0 53 -2 60 -20 60 -13 0 -20 7 -20 20 0 18 -7 20 -80 20 -73 0 -80
-2 -80 -20 0 -13 -7 -20 -20 -20 -13 0 -20 -7 -20 -20 0 -13 -7 -20 -20 -20
-13 0 -20 -7 -20 -20 0 -13 -7 -20 -20 -20 -13 0 -20 -7 -20 -20 0 -13 -7 -20
-20 -20 -13 0 -20 -7 -20 -20 0 -13 -7 -20 -20 -20 -13 0 -20 -7 -20 -20 0
-13 -7 -20 -20 -20 -13 0 -20 -7 -20 -20 0 -17 -7 -20 -40 -20 -33 0 -40 -3
-40 -20 0 -13 -7 -20 -20 -20 -13 0 -20 -7 -20 -20 0 -17 -7 -20 -40 -20 -33
0 -40 -3 -40 -20 0 -17 -7 -20 -40 -20 -33 0 -40 -3 -40 -20 0 -17 -7 -20 -40
-20 -33 0 -40 -3 -40 -20 0 -18 -7 -20 -60 -20 -53 0 -60 -2 -60 -20 0 -18 -7
-20 -60 -20 -53 0 -60 -2 -60 -20 0 -19 -7 -20 -100 -20 -93 0 -100 -1 -100
-20 0 -18 -7 -20 -80 -20 -73 0 -80 -2 -80 -20 0 -18 -7 -20 -60 -20 -53 0
-60 -2 -60 -20 0 -17 -7 -20 -40 -20 -33 0 -40 -3 -40 -20 0 -13 -7 -20 -20
-20 -13 0 -20 -7 -20 -20 0 -13 -7 -20 -20 -20 -13 0 -20 -7 -20 -20 0 -17 -7
-20 -40 -20 -33 0 -40 -3 -40 -20 0 -17 -7 -20 -40 -20 -33 0 -40 -3 -40 -20
0 -19 -7 -20 -100 -20 -93 0 -100 -1 -100 -20 0 -17 -7 -20 -40 -20 -33 0 -40
-3 -40 -20 0 -13 -7 -20 -20 -20 -13 0 -20 -7 -20 -20 0 -17 -7 -20 -40 -20
-33 0 -40 -3 -40 -20 0 -13 -7 -20 -20 -20 -17 0 -20 -7 -20 -40 0 -33 -3 -40
-20 -40 -13 0 -20 -7 -20 -20 0 -13 -7 -20 -20 -20 -13 0 -20 -7 -20 -20 0
-13 -7 -20 -20 -20 -18 0 -20 7 -20 80 0 73 2 80 20 80 18 0 20 7 20 60 0 53
2 60 20 60 18 0 20 7 20 60 0 53 2 60 20 60 17 0 20 7 20 40 0 33 3 40 20 40
17 0 20 7 20 40 0 33 3 40 20 40 17 0 20 7 20 40 0 33 3 40 20 40 13 0 20 7
20 20 0 13 7 20 20 20 17 0 20 7 20 40 0 33 3 40 20 40 13 0 20 7 20 20 0 13
7 20 20 20 17 0 20 7 20 40 0 33 3 40 20 40 13 0 20 7 20 20 0 13 7 20 20 20
13 0 20 7 20 20 0 13 7 20 20 20 17 0 20 7 20 40 0 33 3 40 20 40 13 0 20 7
20 20 0 13 7 20 20 20 13 0 20 7 20 20 0 13 7 20 20 20 13 0 20 7 20 20 0 13
7 20 20 20 17 0 20 7 20 40 0 33 3 40 20 40 13 0 20 7 20 20 0 13 7 20 20 20
17 0 20 7 20 40 0 33 3 40 20 40 17 0 20 7 20 40 0 33 3 40 20 40 17 0 20 7
20 40 0 33 3 40 20 40 13 0 20 7 20 20 0 13 7 20 20 20 13 0 20 7 20 20 0 18
7 20 80 20 73 0 80 2 80 20 0 17 7 20 40 20 33 0 40 3 40 20 0 18 7 20 60 20
53 0 60 2 60 20 0 17 7 20 40 20 33 0 40 3 40 20 0 17 7 20 40 20 33 0 40 3
40 20 0 18 7 20 60 20 53 0 60 2 60 20 0 13 7 20 20 20 13 0 20 7 20 20 0 18
7 20 60 20 53 0 60 2 60 20 0 18 7 20 60 20 53 0 60 2 60 20 0 17 7 20 40 20
33 0 40 3 40 20 0 17 7 20 40 20 33 0 40 3 40 20 0 13 7 20 20 20 13 0 20 7
20 20 0 17 7 20 40 20 l40 0 0 40 c0 33 3 40 20 40 13 0 20 7 20 20 0 13 7 20
20 20 13 0 20 7 20 20 0 13 7 20 20 20 17 0 20 7 20 40 0 33 3 40 20 40 17 0
20 7 20 40 0 33 3 40 20 40 17 0 20 7 20 40 0 33 3 40 20 40 17 0 20 7 20 40
0 33 3 40 20 40 18 0 20 7 20 80 0 73 2 80 20 80 18 0 20 7 20 60 0 53 2 60
20 60 18 0 20 7 20 80 0 73 2 80 20 80 19 0 20 7 20 100 0 93 1 100 20 100 19
0 20 7 20 180 0 173 1 180 20 180 19 0 20 7 20 140 0 133 -1 140 -20 140 -20
0 -20 7 -20 320 0 313 0 320 -20 320 -18 0 -20 7 -20 60 0 53 -2 60 -20 60
-13 0 -20 7 -20 20 0 13 -7 20 -20 20 -13 0 -20 7 -20 20 0 17 -7 20 -40 20
-33 0 -40 3 -40 20 0 13 -7 20 -20 20 -13 0 -20 -7 -20 -20 0 -17 -7 -20 -40
-20 -33 0 -40 -3 -40 -20 0 -13 -7 -20 -20 -20 -17 0 -20 -7 -20 -40 0 -33 -3
-40 -20 -40 -17 0 -20 -7 -20 -40 0 -33 -3 -40 -20 -40 -17 0 -20 -7 -20 -40
0 -33 -3 -40 -20 -40 -17 0 -20 -7 -20 -40 0 -33 -3 -40 -20 -40 -13 0 -20 -7
-20 -20 0 -13 -7 -20 -20 -20 -13 0 -20 -7 -20 -20 0 -13 -7 -20 -20 -20 -13
0 -20 -7 -20 -20 0 -17 -7 -20 -40 -20 -33 0 -40 -3 -40 -20 0 -13 -7 -20 -20
-20 -13 0 -20 -7 -20 -20 0 -13 -7 -20 -20 -20 -13 0 -20 -7 -20 -20 0 -13 -7
-20 -20 -20 -13 0 -20 -7 -20 -20 0 -13 -7 -20 -20 -20 -13 0 -20 -7 -20 -20
0 -13 -7 -20 -20 -20 -13 0 -20 -7 -20 -20 0 -13 -7 -20 -20 -20 -13 0 -20 -7
-20 -20 0 -13 -7 -20 -20 -20 -17 0 -20 -7 -20 -40 0 -33 -3 -40 -20 -40 -17
0 -20 -7 -20 -40 0 -33 -3 -40 -20 -40 -13 0 -20 -7 -20 -20 0 -13 -7 -20 -20
-20 -17 0 -20 -7 -20 -40 0 -33 -3 -40 -20 -40 -13 0 -20 -7 -20 -20 0 -13 -7
-20 -20 -20 -13 0 -20 -7 -20 -20 0 -13 -7 -20 -20 -20 -13 0 -20 -7 -20 -20
0 -13 -7 -20 -20 -20 -13 0 -20 -7 -20 -20 0 -13 -7 -20 -20 -20 -13 0 -20 -7
-20 -20 0 -13 -7 -20 -20 -20 -17 0 -20 -7 -20 -40 0 -33 -3 -40 -20 -40 -17
0 -20 -7 -20 -40 0 -33 -3 -40 -20 -40 -17 0 -20 -7 -20 -40 0 -33 -3 -40 -20
-40 -17 0 -20 -7 -20 -40 0 -33 -3 -40 -20 -40 -18 0 -20 -7 -20 -80 0 -73 -2
-80 -20 -80 -18 0 -20 -7 -20 -60 0 -53 -2 -60 -20 -60 -18 0 -20 -7 -20 -80
0 -73 -2 -80 -20 -80 -19 0 -20 -7 -20 -100 0 -93 -1 -100 -20 -100 -19 0 -20
-7 -20 -100 0 -93 -1 -100 -20 -100 -19 0 -20 -7 -20 -120 0 -113 -1 -120 -20
-120 -19 0 -20 -7 -20 -240 0 -233 -1 -240 -20 -240 -17 0 -20 -7 -20 -40 0
-33 -3 -40 -20 -40 -17 0 -20 -7 -20 -40 0 -33 -3 -40 -20 -40 -17 0 -20 -7
-20 -40 0 -33 -3 -40 -20 -40 -13 0 -20 -7 -20 -20 0 -13 -7 -20 -20 -20 -17
0 -20 -7 -20 -40 0 -33 -3 -40 -20 -40 -13 0 -20 -7 -20 -20 0 -13 -7 -20 -20
-20 -13 0 -20 -7 -20 -20 0 -13 -7 -20 -20 -20 -17 0 -20 -7 -20 -40 0 -33 -3
-40 -20 -40 -13 0 -20 -7 -20 -20 0 -13 -7 -20 -20 -20 -13 0 -20 -7 -20 -20
0 -13 -7 -20 -20 -20 -13 0 -20 -7 -20 -20 0 -13 -7 -20 -20 -20 -17 0 -20 -7
-20 -40 0 -33 -3 -40 -20 -40 -13 0 -20 -7 -20 -20 0 -13 -7 -20 -20 -20 -17
0 -20 -7 -20 -40 0 -33 -3 -40 -20 -40 -13 0 -20 -7 -20 -20 0 -13 -7 -20 -20
-20 -17 0 -20 -7 -20 -40 0 -33 -3 -40 -20 -40 -17 0 -20 -7 -20 -40 0 -33 -3
-40 -20 -40 -17 0 -20 -7 -20 -40 0 -33 -3 -40 -20 -40 -17 0 -20 -7 -20 -40
0 -33 -3 -40 -20 -40 -18 0 -20 -7 -20 -60 0 -53 -2 -60 -20 -60 -13 0 -20 7
-20 20 0 13 -7 20 -20 20 -19 0 -20 7 -20 200 0 193 -1 200 -20 200 -19 0 -20
7 -20 140 0 133 -1 140 -20 140 -19 0 -20 7 -20 120 0 113 -1 120 -20 120 -19
0 -20 7 -20 120 0 113 -1 120 -20 120 -19 0 -20 7 -20 120 0 113 -1 120 -20
120 -19 0 -20 7 -20 120 0 113 -1 120 -20 120 -19 0 -20 7 -20 220 0 213 -1
220 -20 220 -20 0 -20 7 -20 300 0 293 0 300 20 300 19 0 20 7 20 120 0 113 1
120 20 120 18 0 20 7 20 60 0 53 2 60 20 60 17 0 20 7 20 40 0 33 3 40 20 40
17 0 20 7 20 40 0 33 3 40 20 40 17 0 20 7 20 40 0 33 3 40 20 40 13 0 20 7
20 20 0 13 7 20 20 20 17 0 20 7 20 40 0 33 3 40 20 40 13 0 20 7 20 20 0 13
7 20 20 20 13 0 20 7 20 20 0 13 7 20 20 20 13 0 20 7 20 20 0 13 7 20 20 20
13 0 20 7 20 20 0 13 7 20 20 20 13 0 20 7 20 20 0 13 7 20 20 20 13 0 20 7
20 20 0 19 7 20 180 20 173 0 180 1 180 20 0 19 7 20 120 20 113 0 120 1 120
20 0 18 7 20 80 20 73 0 80 2 80 20 0 17 7 20 40 20 33 0 40 3 40 20 0 17 7
20 40 20 33 0 40 3 40 20 0 17 7 20 40 20 33 0 40 3 40 20 0 13 7 20 20 20 13
0 20 7 20 20 0 17 7 20 40 20 33 0 40 3 40 20 0 13 7 20 20 20 13 0 20 7 20
20 0 13 7 20 20 20 13 0 20 7 20 20 0 13 7 20 20 20 13 0 20 7 20 20 0 13 7
20 20 20 17 0 20 7 20 40 0 33 3 40 20 40 13 0 20 7 20 20 0 13 7 20 20 20 13
0 20 7 20 20 0 13 7 20 20 20 13 0 20 7 20 20 0 13 7 20 20 20 17 0 20 7 20
40 0 33 3 40 20 40 13 0 20 7 20 20 0 13 7 20 20 20 17 0 20 7 20 40 0 33 3
40 20 40 13 0 20 7 20 20 0 13 7 20 20 20 17 0 20 7 20 40 0 33 3 40 20 40 17
0 20 7 20 40 0 33 3 40 20 40 13 0 20 7 20 20 0 13 7 20 20 20 17 0 20 7 20
40 0 33 3 40 20 40 17 0 20 7 20 40 0 33 3 40 20 40 17 0 20 7 20 40 0 33 3
40 20 40 18 0 20 7 20 60 0 53 2 60 20 60 18 0 20 7 20 60 0 53 2 60 20 60 18
0 20 7 20 60 0 53 2 60 20 60 18 0 20 7 20 80 0 73 2 80 20 80 20 0 20 7 20
400 0 393 0 400 -20 400 -13 0 -20 7 -20 20 0 13 -7 20 -20 20 -13 0 -20 7
-20 20 0 18 -7 20 -60 20 -53 0 -60 -2 -60 -20 0 -13 -7 -20 -20 -20 -13 0
-20 -7 -20 -20 0 -13 -7 -20 -20 -20 -13 0 -20 -7 -20 -20 0 -13 -7 -20 -20
-20 -13 0 -20 -7 -20 -20 0 -13 -7 -20 -20 -20 -13 0 -20 -7 -20 -20 0 -13 -7
-20 -20 -20 -13 0 -20 -7 -20 -20 0 -13 -7 -20 -20 -20 -13 0 -20 -7 -20 -20
0 -13 -7 -20 -20 -20 -13 0 -20 -7 -20 -20 0 -13 -7 -20 -20 -20 -17 0 -20 -7
-20 -40 0 -33 -3 -40 -20 -40 -13 0 -20 -7 -20 -20 0 -13 -7 -20 -20 -20 -13
0 -20 -7 -20 -20 0 -17 -7 -20 -40 -20 -33 0 -40 -3 -40 -20 0 -13 -7 -20 -20
-20 -13 0 -20 -7 -20 -20 0 -17 -7 -20 -40 -20 -33 0 -40 -3 -40 -20 0 -17 -7
-20 -40 -20 -33 0 -40 -3 -40 -20 0 -13 -7 -20 -20 -20 -13 0 -20 -7 -20 -20
0 -17 -7 -20 -40 -20 -33 0 -40 -3 -40 -20 0 -13 -7 -20 -20 -20 -13 0 -20 -7
-20 -20 0 -13 -7 -20 -20 -20 -13 0 -20 -7 -20 -20 0 -13 -7 -20 -20 -20 -13
0 -20 -7 -20 -20 0 -17 -7 -20 -40 -20 -33 0 -40 -3 -40 -20 0 -17 -7 -20 -40
-20 -33 0 -40 -3 -40 -20 0 -13 -7 -20 -20 -20 -13 0 -20 -7 -20 -20 0 -13 -7
-20 -20 -20 -13 0 -20 -7 -20 -20 0 -13 -7 -20 -20 -20 -17 0 -20 -7 -20 -40
0 -33 -3 -40 -20 -40 -17 0 -20 -7 -20 -40 0 -33 -3 -40 -20 -40 -13 0 -20 -7
-20 -20 0 -13 -7 -20 -20 -20 -17 0 -20 -7 -20 -40 0 -33 -3 -40 -20 -40 -13
0 -20 -7 -20 -20 0 -13 -7 -20 -20 -20 -17 0 -20 -7 -20 -40 0 -33 -3 -40 -20
-40 -13 0 -20 -7 -20 -20 0 -13 -7 -20 -20 -20 -17 0 -20 -7 -20 -40 0 -33 -3
-40 -20 -40 -18 0 -20 -7 -20 -60 0 -53 -2 -60 -20 -60 -18 0 -20 -7 -20 -80
0 -73 -2 -80 -20 -80 -18 0 -20 -7 -20 -80 0 -73 -2 -80 -20 -80 -19 0 -20 -7
-20 -160 0 -153 -1 -160 -20 -160 -19 0 -20 -7 -20 -100 0 -93 -1 -100 -20
-100 -18 0 -20 -7 -20 -60 0 -53 -2 -60 -20 -60 -13 0 -20 -7 -20 -20 0 -13
-7 -20 -20 -20 -13 0 -20 -7 -20 -20 0 -13 -7 -20 -20 -20 -13 0 -20 -7 -20
-20 0 -13 -7 -20 -20 -20 -13 0 -20 -7 -20 -20 0 -13 -7 -20 -20 -20 -13 0
-20 -7 -20 -20 0 -13 -7 -20 -20 -20 -13 0 -20 -7 -20 -20 0 -13 -7 -20 -20
-20 -13 0 -20 -7 -20 -20 0 -13 -7 -20 -20 -20 -13 0 -20 -7 -20 -20 0 -13 -7
-20 -20 -20 -17 0 -20 -7 -20 -40 0 -33 -3 -40 -20 -40 -13 0 -20 -7 -20 -20
0 -13 -7 -20 -20 -20 -17 0 -20 -7 -20 -40 0 -33 -3 -40 -20 -40 -17 0 -20 -7
-20 -40 0 -33 -3 -40 -20 -40 -17 0 -20 -7 -20 -40 0 -33 -3 -40 -20 -40 -18
0 -20 -7 -20 -60 0 -53 -2 -60 -20 -60 -18 0 -20 -7 -20 -80 0 -73 -2 -80 -20
-80 -19 0 -20 -7 -20 -160 0 -153 -1 -160 -20 -160 -19 0 -20 7 -20 140 0 133
-1 140 -20 140 -20 0 -20 7 -20 780 0 773 0 780 20 780 20 0 20 7 20 300 0
293 0 300 20 300 20 0 20 7 20 320 0 313 0 320 20 320 20 0 20 7 20 320 0 313
0 320 -20 320 -20 0 -20 7 -20 360 l0 360 40 0 c33 0 40 -3 40 -20 0 -18 7
-20 80 -20 73 0 80 -2 80 -20 0 -19 7 -20 140 -20 133 0 140 -1 140 -20 0 -19
7 -20 120 -20 113 0 120 -1 120 -20 0 -19 7 -20 140 -20 133 0 140 -1 140 -20
0 -19 7 -20 180 -20 173 0 180 1 180 20 0 18 7 20 80 20 73 0 80 2 80 20 0 17
7 20 40 20 33 0 40 3 40 20 0 17 7 20 40 20 33 0 40 3 40 20 0 13 7 20 20 20
13 0 20 7 20 20 0 13 7 20 20 20 13 0 20 7 20 20 0 13 7 20 20 20 18 0 20 7
20 60 0 53 -2 60 -20 60 -17 0 -20 7 -20 40 l0 40 -40 0 c-33 0 -40 3 -40 20
0 19 -7 20 -160 20 -153 0 -160 -1 -160 -20 0 -19 -7 -20 -120 -20 -113 0
-120 -1 -120 -20 0 -19 -7 -20 -160 -20 -153 0 -160 -1 -160 -20 0 -19 -7 -20
-240 -20 -233 0 -240 1 -240 20 0 17 7 20 40 20 33 0 40 3 40 20 0 18 7 20 60
20 53 0 60 2 60 20 0 17 7 20 40 20 33 0 40 3 40 20 0 18 7 20 60 20 53 0 60
2 60 20 0 17 7 20 40 20 33 0 40 3 40 20 0 13 7 20 20 20 13 0 20 7 20 20 0
17 7 20 40 20 33 0 40 3 40 20 0 17 7 20 40 20 33 0 40 3 40 20 0 17 7 20 40
20 33 0 40 3 40 20 0 13 7 20 20 20 13 0 20 7 20 20 0 13 7 20 20 20 13 0 20
7 20 20 0 17 7 20 40 20 33 0 40 3 40 20 0 13 7 20 20 20 13 0 20 7 20 20 0
13 7 20 20 20 13 0 20 7 20 20 0 13 7 20 20 20 13 0 20 7 20 20 0 13 7 20 20
20 13 0 20 7 20 20 0 13 7 20 20 20 13 0 20 7 20 20 0 13 7 20 20 20 13 0 20
7 20 20 0 13 7 20 20 20 13 0 20 7 20 20 0 13 7 20 20 20 17 0 20 7 20 40 0
33 3 40 20 40 13 0 20 7 20 20 0 13 7 20 20 20 17 0 20 7 20 40 0 33 3 40 20
40 17 0 20 7 20 40 0 33 3 40 20 40 17 0 20 7 20 40 0 33 3 40 20 40 18 0 20
7 20 60 0 53 2 60 20 60 19 0 20 7 20 160 0 153 -1 160 -20 160 -17 0 -20 7
-20 40 0 33 -3 40 -20 40 -13 0 -20 7 -20 20 0 13 -7 20 -20 20 -13 0 -20 7
-20 20 0 13 -7 20 -20 20 -13 0 -20 7 -20 20 0 13 -7 20 -20 20 -13 0 -20 7
-20 20 0 13 -7 20 -20 20 -13 0 -20 7 -20 20 0 13 -7 20 -20 20 -13 0 -20 7
-20 20 0 13 -7 20 -20 20 -13 0 -20 7 -20 20 0 13 -7 20 -20 20 -13 0 -20 7
-20 20 0 13 -7 20 -20 20 -13 0 -20 7 -20 20 0 17 -7 20 -40 20 -33 0 -40 3
-40 20 0 17 -7 20 -40 20 -33 0 -40 3 -40 20 0 19 -7 20 -100 20 l-100 0 0 60
c0 53 -2 60 -20 60 -17 0 -20 7 -20 40 0 33 -3 40 -20 40 -17 0 -20 7 -20 40
0 33 -3 40 -20 40 -13 0 -20 7 -20 20 0 13 -7 20 -20 20 -17 0 -20 7 -20 40 0
33 -3 40 -20 40 -13 0 -20 7 -20 20 0 13 -7 20 -20 20 -13 0 -20 7 -20 20 0
17 -7 20 -40 20 -33 0 -40 3 -40 20 0 13 -7 20 -20 20 -13 0 -20 7 -20 20 0
17 -7 20 -40 20 -33 0 -40 3 -40 20 0 18 -7 20 -60 20 -53 0 -60 2 -60 20 0
19 -7 20 -100 20 -93 0 -100 1 -100 20 0 20 -7 20 -360 20 -353 0 -360 0 -360
-20z m640 -40 c0 -19 7 -20 100 -20 93 0 100 -1 100 -20 0 -18 7 -20 60 -20
53 0 60 -2 60 -20 0 -18 7 -20 60 -20 53 0 60 -2 60 -20 0 -13 7 -20 20 -20
13 0 20 -7 20 -20 0 -17 7 -20 40 -20 33 0 40 -3 40 -20 0 -13 7 -20 20 -20
13 0 20 -7 20 -20 0 -13 7 -20 20 -20 17 0 20 -7 20 -40 0 -33 3 -40 20 -40
13 0 20 -7 20 -20 0 -13 7 -20 20 -20 17 0 20 -7 20 -40 0 -33 3 -40 20 -40
18 0 20 -7 20 -60 0 -53 2 -60 20 -60 19 0 20 -7 20 -100 0 -93 1 -100 20
-100 18 0 20 -7 20 -60 0 -53 -2 -60 -20 -60 -19 0 -20 -7 -20 -140 0 -133 -1
-140 -20 -140 -18 0 -20 -7 -20 -60 0 -53 -2 -60 -20 -60 -18 0 -20 -7 -20
-60 0 -53 -2 -60 -20 -60 -17 0 -20 -7 -20 -40 0 -33 -3 -40 -20 -40 -18 0
-20 -7 -20 -60 0 -53 -2 -60 -20 -60 -17 0 -20 -7 -20 -40 0 -33 -3 -40 -20
-40 -17 0 -20 -7 -20 -40 0 -33 -3 -40 -20 -40 -17 0 -20 -7 -20 -40 0 -33 -3
-40 -20 -40 -13 0 -20 -7 -20 -20 0 -13 -7 -20 -20 -20 -17 0 -20 -7 -20 -40
0 -33 -3 -40 -20 -40 -17 0 -20 -7 -20 -40 0 -33 -3 -40 -20 -40 -13 0 -20 -7
-20 -20 0 -13 -7 -20 -20 -20 -17 0 -20 -7 -20 -40 0 -33 -3 -40 -20 -40 -17
0 -20 -7 -20 -40 0 -33 -3 -40 -20 -40 -13 0 -20 -7 -20 -20 0 -13 -7 -20 -20
-20 -13 0 -20 -7 -20 -20 0 -13 -7 -20 -20 -20 -17 0 -20 -7 -20 -40 0 -33 -3
-40 -20 -40 -13 0 -20 -7 -20 -20 0 -13 -7 -20 -20 -20 -17 0 -20 -7 -20 -40
0 -33 3 -40 20 -40 13 0 20 7 20 20 0 13 7 20 20 20 13 0 20 7 20 20 0 13 7
20 20 20 17 0 20 7 20 40 0 33 3 40 20 40 13 0 20 7 20 20 0 13 7 20 20 20 13
0 20 7 20 20 0 13 7 20 20 20 17 0 20 7 20 40 0 33 3 40 20 40 17 0 20 7 20
40 0 33 3 40 20 40 13 0 20 7 20 20 0 13 7 20 20 20 17 0 20 7 20 40 0 33 3
40 20 40 17 0 20 7 20 40 0 33 3 40 20 40 13 0 20 7 20 20 0 13 7 20 20 20 17
0 20 7 20 40 0 33 3 40 20 40 17 0 20 7 20 40 0 33 3 40 20 40 17 0 20 7 20
40 0 33 3 40 20 40 18 0 20 7 20 60 0 53 2 60 20 60 17 0 20 7 20 40 0 33 3
40 20 40 18 0 20 7 20 60 0 53 2 60 20 60 18 0 20 7 20 60 0 53 2 60 20 60 18
0 20 7 20 80 0 73 2 80 20 80 19 0 20 7 20 200 l0 200 40 0 c33 0 40 -3 40
-20 0 -18 7 -20 60 -20 53 0 60 -2 60 -20 0 -17 7 -20 40 -20 33 0 40 -3 40
-20 0 -13 7 -20 20 -20 13 0 20 -7 20 -20 0 -13 7 -20 20 -20 13 0 20 -7 20
-20 0 -13 7 -20 20 -20 13 0 20 -7 20 -20 0 -13 7 -20 20 -20 13 0 20 -7 20
-20 0 -13 7 -20 20 -20 13 0 20 -7 20 -20 0 -13 7 -20 20 -20 13 0 20 -7 20
-20 0 -13 7 -20 20 -20 13 0 20 -7 20 -20 0 -13 7 -20 20 -20 13 0 20 -7 20
-20 0 -13 7 -20 20 -20 18 0 20 -7 20 -60 0 -53 2 -60 20 -60 18 0 20 -7 20
-60 0 -53 -2 -60 -20 -60 -18 0 -20 -7 -20 -80 0 -73 -2 -80 -20 -80 -18 0
-20 -7 -20 -60 0 -53 -2 -60 -20 -60 -17 0 -20 -7 -20 -40 0 -33 -3 -40 -20
-40 -17 0 -20 -7 -20 -40 0 -33 -3 -40 -20 -40 -13 0 -20 -7 -20 -20 0 -13 -7
-20 -20 -20 -17 0 -20 -7 -20 -40 0 -33 -3 -40 -20 -40 -13 0 -20 -7 -20 -20
0 -13 -7 -20 -20 -20 -13 0 -20 -7 -20 -20 0 -13 -7 -20 -20 -20 -13 0 -20 -7
-20 -20 0 -13 -7 -20 -20 -20 -13 0 -20 -7 -20 -20 0 -13 -7 -20 -20 -20 -13
0 -20 -7 -20 -20 0 -13 -7 -20 -20 -20 -13 0 -20 -7 -20 -20 0 -13 -7 -20 -20
-20 -13 0 -20 -7 -20 -20 0 -13 -7 -20 -20 -20 -13 0 -20 -7 -20 -20 0 -17 -7
-20 -40 -20 -33 0 -40 -3 -40 -20 0 -13 -7 -20 -20 -20 -13 0 -20 -7 -20 -20
0 -13 -7 -20 -20 -20 -13 0 -20 -7 -20 -20 0 -17 -7 -20 -40 -20 -33 0 -40 -3
-40 -20 0 -17 -7 -20 -40 -20 -33 0 -40 -3 -40 -20 0 -13 -7 -20 -20 -20 -13
0 -20 -7 -20 -20 0 -17 -7 -20 -40 -20 -33 0 -40 -3 -40 -20 0 -18 -7 -20 -60
-20 -53 0 -60 -2 -60 -20 0 -17 -7 -20 -40 -20 -33 0 -40 -3 -40 -20 0 -17 -7
-20 -40 -20 -33 0 -40 -3 -40 -20 0 -18 -7 -20 -60 -20 -53 0 -60 -2 -60 -20
0 -13 -7 -20 -20 -20 -13 0 -20 7 -20 20 0 13 7 20 20 20 13 0 20 7 20 20 0
17 -7 20 -40 20 -33 0 -40 3 -40 20 0 13 -7 20 -20 20 -13 0 -20 -7 -20 -20 0
-13 -7 -20 -20 -20 -13 0 -20 -7 -20 -20 0 -13 -7 -20 -20 -20 -13 0 -20 -7
-20 -20 0 -13 -7 -20 -20 -20 -13 0 -20 -7 -20 -20 0 -17 -7 -20 -40 -20 -33
0 -40 -3 -40 -20 0 -18 -7 -20 -60 -20 -53 0 -60 2 -60 20 0 13 -7 20 -20 20
-13 0 -20 -7 -20 -20 0 -17 -7 -20 -40 -20 -33 0 -40 3 -40 20 0 17 -7 20 -40
20 -33 0 -40 3 -40 20 0 13 -7 20 -20 20 -13 0 -20 7 -20 20 0 13 -7 20 -20
20 -13 0 -20 7 -20 20 0 13 -7 20 -20 20 -13 0 -20 7 -20 20 0 13 -7 20 -20
20 -17 0 -20 7 -20 40 0 33 -3 40 -20 40 -13 0 -20 7 -20 20 0 13 -7 20 -20
20 -17 0 -20 7 -20 40 0 33 -3 40 -20 40 -17 0 -20 7 -20 40 0 33 -3 40 -20
40 -17 0 -20 7 -20 40 0 33 -3 40 -20 40 -17 0 -20 7 -20 40 0 33 -3 40 -20
40 -17 0 -20 7 -20 40 0 33 -3 40 -20 40 -17 0 -20 7 -20 40 0 33 -3 40 -20
40 -18 0 -20 7 -20 60 0 53 -2 60 -20 60 -18 0 -20 7 -20 80 0 73 -2 80 -20
80 -19 0 -20 7 -20 100 0 93 -1 100 -20 100 -20 0 -20 7 -20 380 0 373 0 380
20 380 19 0 20 7 20 100 0 93 1 100 20 100 18 0 20 7 20 60 0 53 2 60 20 60
17 0 20 7 20 40 0 33 3 40 20 40 17 0 20 7 20 40 0 33 -3 40 -20 40 -13 0 -20
-7 -20 -20 0 -13 -7 -20 -20 -20 -17 0 -20 -7 -20 -40 0 -33 -3 -40 -20 -40
-18 0 -20 -7 -20 -60 0 -53 -2 -60 -20 -60 -18 0 -20 -7 -20 -80 0 -73 -2 -80
-20 -80 -19 0 -20 -7 -20 -140 0 -133 -1 -140 -20 -140 -19 0 -20 -7 -20 -180
0 -173 1 -180 20 -180 19 0 20 -7 20 -140 0 -133 1 -140 20 -140 19 0 20 -7
20 -100 0 -93 1 -100 20 -100 18 0 20 -7 20 -60 0 -53 2 -60 20 -60 18 0 20
-7 20 -60 0 -53 2 -60 20 -60 17 0 20 -7 20 -40 0 -33 3 -40 20 -40 17 0 20
-7 20 -40 0 -33 3 -40 20 -40 17 0 20 -7 20 -40 0 -33 3 -40 20 -40 17 0 20
-7 20 -40 0 -33 3 -40 20 -40 17 0 20 -7 20 -40 0 -33 3 -40 20 -40 17 0 20
-7 20 -40 0 -33 3 -40 20 -40 13 0 20 -7 20 -20 0 -13 7 -20 20 -20 17 0 20
-7 20 -40 0 -33 3 -40 20 -40 13 0 20 -7 20 -20 0 -13 7 -20 20 -20 13 0 20
-7 20 -20 0 -13 7 -20 20 -20 13 0 20 -7 20 -20 0 -13 -7 -20 -20 -20 -13 0
-20 7 -20 20 0 13 -7 20 -20 20 -13 0 -20 7 -20 20 0 13 -7 20 -20 20 -13 0
-20 7 -20 20 0 17 -7 20 -40 20 -33 0 -40 3 -40 20 0 13 -7 20 -20 20 -13 0
-20 7 -20 20 0 13 -7 20 -20 20 -13 0 -20 7 -20 20 0 13 -7 20 -20 20 -13 0
-20 7 -20 20 0 13 -7 20 -20 20 -13 0 -20 7 -20 20 0 17 -7 20 -40 20 -33 0
-40 -3 -40 -20 0 -13 7 -20 20 -20 13 0 20 -7 20 -20 0 -13 7 -20 20 -20 13 0
20 -7 20 -20 0 -13 7 -20 20 -20 13 0 20 -7 20 -20 0 -13 7 -20 20 -20 13 0
20 -7 20 -20 0 -13 7 -20 20 -20 13 0 20 -7 20 -20 0 -17 7 -20 40 -20 33 0
40 -3 40 -20 0 -13 7 -20 20 -20 13 0 20 -7 20 -20 0 -13 7 -20 20 -20 13 0
20 -7 20 -20 0 -17 7 -20 40 -20 33 0 40 -3 40 -20 0 -13 7 -20 20 -20 13 0
20 -7 20 -20 0 -18 -7 -20 -80 -20 -73 0 -80 2 -80 20 0 18 -7 20 -80 20 -73
0 -80 2 -80 20 0 17 -7 20 -40 20 -33 0 -40 3 -40 20 0 18 -7 20 -60 20 -53 0
-60 2 -60 20 0 17 -7 20 -40 20 -33 0 -40 3 -40 20 0 17 -7 20 -40 20 -33 0
-40 3 -40 20 0 17 -7 20 -40 20 -33 0 -40 3 -40 20 0 17 -7 20 -40 20 -33 0
-40 3 -40 20 0 13 -7 20 -20 20 -13 0 -20 7 -20 20 0 17 -7 20 -40 20 -33 0
-40 3 -40 20 0 13 -7 20 -20 20 -13 0 -20 7 -20 20 0 17 -7 20 -40 20 -33 0
-40 3 -40 20 0 13 -7 20 -20 20 -13 0 -20 7 -20 20 0 17 -7 20 -40 20 -33 0
-40 3 -40 20 0 13 -7 20 -20 20 -13 0 -20 7 -20 20 0 13 -7 20 -20 20 -13 0
-20 7 -20 20 0 13 -7 20 -20 20 -13 0 -20 7 -20 20 0 13 -7 20 -20 20 -13 0
-20 7 -20 20 0 13 -7 20 -20 20 -17 0 -20 7 -20 40 0 33 -3 40 -20 40 -18 0
-20 7 -20 60 0 53 -2 60 -20 60 -18 0 -20 7 -20 60 0 53 -2 60 -20 60 -19 0
-20 7 -20 140 0 133 1 140 20 140 13 0 20 7 20 20 0 13 7 20 20 20 13 0 20 7
20 20 0 13 7 20 20 20 13 0 20 7 20 20 0 17 7 20 40 20 l40 0 0 -60 c0 -53 2
-60 20 -60 17 0 20 -7 20 -40 0 -33 3 -40 20 -40 13 0 20 -7 20 -20 0 -13 7
-20 20 -20 17 0 20 -7 20 -40 0 -33 3 -40 20 -40 13 0 20 -7 20 -20 0 -13 7
-20 20 -20 13 0 20 -7 20 -20 0 -13 7 -20 20 -20 13 0 20 -7 20 -20 0 -13 7
-20 20 -20 17 0 20 7 20 40 0 33 -3 40 -20 40 -13 0 -20 7 -20 20 0 13 -7 20
-20 20 -13 0 -20 7 -20 20 0 13 -7 20 -20 20 -17 0 -20 7 -20 40 0 33 -3 40
-20 40 -13 0 -20 7 -20 20 0 13 -7 20 -20 20 -17 0 -20 7 -20 40 0 33 -3 40
-20 40 -18 0 -20 7 -20 60 0 53 -2 60 -20 60 -17 0 -20 7 -20 40 0 33 -3 40
-20 40 -18 0 -20 7 -20 60 0 53 -2 60 -20 60 -19 0 -20 7 -20 180 0 173 1 180
20 180 17 0 20 7 20 40 0 33 3 40 20 40 17 0 20 7 20 40 0 33 3 40 20 40 17 0
20 7 20 40 0 33 3 40 20 40 13 0 20 7 20 20 0 13 7 20 20 20 13 0 20 7 20 20
0 13 7 20 20 20 13 0 20 7 20 20 0 13 7 20 20 20 13 0 20 7 20 20 0 17 7 20
40 20 33 0 40 3 40 20 0 18 7 20 60 20 53 0 60 2 60 20 0 17 7 20 40 20 33 0
40 3 40 20 0 17 7 20 40 20 33 0 40 3 40 20 0 17 7 20 40 20 33 0 40 3 40 20
0 19 7 20 140 20 133 0 140 -1 140 -20 0 -13 7 -20 20 -20 13 0 20 7 20 20 0
13 7 20 20 20 13 0 20 7 20 20 0 13 7 20 20 20 13 0 20 7 20 20 0 13 7 20 20
20 13 0 20 7 20 20 0 17 7 20 40 20 33 0 40 3 40 20 0 18 7 20 60 20 53 0 60
2 60 20 0 20 7 20 280 20 273 0 280 0 280 -20z m1400 -2680 c0 -18 7 -20 60
-20 l60 0 0 -100 0 -100 -40 0 c-33 0 -40 -3 -40 -20 0 -13 -7 -20 -20 -20
-13 0 -20 -7 -20 -20 0 -18 -7 -20 -60 -20 -53 0 -60 -2 -60 -20 0 -20 -7 -20
-320 -20 -313 0 -320 0 -320 20 0 19 -7 20 -140 20 -133 0 -140 1 -140 20 0
19 -7 20 -140 20 -133 0 -140 1 -140 20 0 19 -7 20 -100 20 -93 0 -100 1 -100
20 0 17 -7 20 -40 20 -33 0 -40 3 -40 20 0 13 7 20 20 20 13 0 20 7 20 20 0
19 7 20 160 20 153 0 160 -1 160 -20 0 -17 7 -20 40 -20 33 0 40 3 40 20 0 20
7 20 280 20 273 0 280 0 280 20 0 19 7 20 100 20 93 0 100 1 100 20 0 19 7 20
140 20 133 0 140 1 140 20 0 18 7 20 60 20 53 0 60 -2 60 -20z m-2840 -120 c0
-19 7 -20 100 -20 93 0 100 -1 100 -20 0 -20 7 -20 380 -20 l380 0 0 -40 0
-40 -40 0 c-33 0 -40 -3 -40 -20 0 -19 -7 -20 -100 -20 -93 0 -100 -1 -100
-20 0 -20 -7 -20 -460 -20 -453 0 -460 0 -460 20 0 18 -7 20 -80 20 -73 0 -80
2 -80 20 0 17 -7 20 -40 20 -33 0 -40 3 -40 20 0 13 -7 20 -20 20 -17 0 -20 7
-20 40 l0 40 40 0 c33 0 40 3 40 20 0 19 7 20 220 20 213 0 220 -1 220 -20z
m1080 0 c0 -13 -7 -20 -20 -20 -13 0 -20 7 -20 20 0 13 7 20 20 20 13 0 20 -7
20 -20z m-2280 -80 c0 -13 7 -20 20 -20 13 0 20 -7 20 -20 0 -13 7 -20 20 -20
13 0 20 -7 20 -20 0 -13 7 -20 20 -20 13 0 20 -7 20 -20 0 -13 7 -20 20 -20
13 0 20 -7 20 -20 0 -13 7 -20 20 -20 13 0 20 -7 20 -20 0 -13 7 -20 20 -20
17 0 20 -7 20 -40 0 -33 3 -40 20 -40 13 0 20 -7 20 -20 0 -13 7 -20 20 -20
13 0 20 -7 20 -20 0 -13 7 -20 20 -20 13 0 20 -7 20 -20 0 -13 7 -20 20 -20
13 0 20 -7 20 -20 0 -13 7 -20 20 -20 13 0 20 -7 20 -20 0 -13 7 -20 20 -20
17 0 20 -7 20 -40 0 -33 3 -40 20 -40 13 0 20 -7 20 -20 0 -13 7 -20 20 -20
13 0 20 -7 20 -20 0 -13 7 -20 20 -20 17 0 20 -7 20 -40 0 -33 3 -40 20 -40
13 0 20 -7 20 -20 0 -13 7 -20 20 -20 13 0 20 -7 20 -20 0 -13 7 -20 20 -20
17 0 20 -7 20 -40 0 -33 3 -40 20 -40 13 0 20 -7 20 -20 0 -13 7 -20 20 -20
17 0 20 -7 20 -40 0 -33 3 -40 20 -40 17 0 20 -7 20 -40 0 -33 3 -40 20 -40
13 0 20 -7 20 -20 0 -13 7 -20 20 -20 17 0 20 -7 20 -40 0 -33 3 -40 20 -40
17 0 20 -7 20 -40 0 -33 3 -40 20 -40 17 0 20 -7 20 -40 0 -33 3 -40 20 -40
17 0 20 -7 20 -40 0 -33 3 -40 20 -40 18 0 20 -7 20 -60 0 -53 2 -60 20 -60
18 0 20 -7 20 -60 0 -53 2 -60 20 -60 18 0 20 -7 20 -80 0 -73 2 -80 20 -80
18 0 20 -7 20 -80 0 -73 2 -80 20 -80 19 0 20 -7 20 -120 0 -113 1 -120 20
-120 19 0 20 -7 20 -140 0 -133 1 -140 20 -140 18 0 20 -7 20 -80 0 -73 2 -80
20 -80 18 0 20 -7 20 -60 0 -53 2 -60 20 -60 18 0 20 -7 20 -60 0 -53 -2 -60
-20 -60 -13 0 -20 -7 -20 -20 0 -13 7 -20 20 -20 13 0 20 -7 20 -20 0 -19 -7
-20 -120 -20 -113 0 -120 1 -120 20 0 18 -7 20 -60 20 -53 0 -60 2 -60 20 0
17 -7 20 -40 20 -33 0 -40 3 -40 20 0 17 -7 20 -40 20 -33 0 -40 -3 -40 -20 0
-13 7 -20 20 -20 13 0 20 -7 20 -20 0 -17 7 -20 40 -20 33 0 40 -3 40 -20 0
-18 7 -20 60 -20 53 0 60 -2 60 -20 0 -19 7 -20 180 -20 l180 0 0 -40 c0 -33
3 -40 20 -40 13 0 20 -7 20 -20 0 -13 7 -20 20 -20 13 0 20 -7 20 -20 0 -13 7
-20 20 -20 17 0 20 -7 20 -40 0 -33 3 -40 20 -40 13 0 20 -7 20 -20 0 -13 7
-20 20 -20 17 0 20 -7 20 -40 0 -33 3 -40 20 -40 17 0 20 -7 20 -40 0 -33 3
-40 20 -40 13 0 20 -7 20 -20 0 -13 7 -20 20 -20 17 0 20 -7 20 -40 0 -33 3
-40 20 -40 17 0 20 -7 20 -40 0 -33 3 -40 20 -40 17 0 20 -7 20 -40 0 -33 3
-40 20 -40 17 0 20 -7 20 -40 0 -33 3 -40 20 -40 17 0 20 -7 20 -40 0 -33 3
-40 20 -40 17 0 20 -7 20 -40 0 -33 3 -40 20 -40 17 0 20 -7 20 -40 0 -33 3
-40 20 -40 17 0 20 -7 20 -40 0 -33 3 -40 20 -40 17 0 20 -7 20 -40 0 -33 3
-40 20 -40 17 0 20 -7 20 -40 0 -33 3 -40 20 -40 17 0 20 -7 20 -40 0 -33 3
-40 20 -40 17 0 20 -7 20 -40 0 -33 3 -40 20 -40 18 0 20 -7 20 -60 0 -53 2
-60 20 -60 18 0 20 -7 20 -80 0 -73 -2 -80 -20 -80 -13 0 -20 7 -20 20 0 13
-7 20 -20 20 -13 0 -20 7 -20 20 0 13 -7 20 -20 20 -13 0 -20 7 -20 20 0 17
-7 20 -40 20 -33 0 -40 3 -40 20 0 13 -7 20 -20 20 -13 0 -20 7 -20 20 0 17
-7 20 -40 20 -33 0 -40 3 -40 20 0 13 -7 20 -20 20 -13 0 -20 7 -20 20 0 18
-7 20 -60 20 -53 0 -60 2 -60 20 0 17 -7 20 -40 20 -33 0 -40 3 -40 20 0 17
-7 20 -40 20 -33 0 -40 3 -40 20 0 17 -7 20 -40 20 -33 0 -40 3 -40 20 0 18
-7 20 -60 20 -53 0 -60 2 -60 20 0 17 -7 20 -40 20 -33 0 -40 3 -40 20 0 18
-7 20 -60 20 -53 0 -60 2 -60 20 0 13 -7 20 -20 20 -13 0 -20 7 -20 20 0 17
-7 20 -40 20 -33 0 -40 3 -40 20 0 13 -7 20 -20 20 -13 0 -20 7 -20 20 0 13
-7 20 -20 20 -13 0 -20 7 -20 20 0 13 -7 20 -20 20 -13 0 -20 7 -20 20 0 13
-7 20 -20 20 -18 0 -20 7 -20 60 0 53 2 60 20 60 17 0 20 7 20 40 0 33 3 40
20 40 19 0 20 7 20 200 0 193 -1 200 -20 200 -18 0 -20 7 -20 80 0 73 -2 80
-20 80 -17 0 -20 7 -20 40 0 33 -3 40 -20 40 -17 0 -20 7 -20 40 0 33 -3 40
-20 40 -17 0 -20 7 -20 40 0 33 -3 40 -20 40 -13 0 -20 7 -20 20 0 13 -7 20
-20 20 -17 0 -20 -7 -20 -40 0 -33 3 -40 20 -40 17 0 20 -7 20 -40 0 -33 3
-40 20 -40 17 0 20 -7 20 -40 0 -33 3 -40 20 -40 18 0 20 -7 20 -60 0 -53 2
-60 20 -60 18 0 20 -7 20 -60 0 -53 2 -60 20 -60 19 0 20 -7 20 -140 0 -133
-1 -140 -20 -140 -18 0 -20 -7 -20 -60 0 -53 -2 -60 -20 -60 -17 0 -20 -7 -20
-40 l0 -40 -40 0 -40 0 0 40 c0 33 -3 40 -20 40 -13 0 -20 7 -20 20 0 13 -7
20 -20 20 -17 0 -20 -7 -20 -40 0 -33 3 -40 20 -40 13 0 20 -7 20 -20 0 -19
-7 -20 -100 -20 -93 0 -100 1 -100 20 0 19 -7 20 -140 20 -133 0 -140 1 -140
20 0 18 -7 20 -60 20 -53 0 -60 2 -60 20 0 17 -7 20 -40 20 -33 0 -40 3 -40
20 0 17 -7 20 -40 20 -33 0 -40 3 -40 20 0 13 -7 20 -20 20 -13 0 -20 7 -20
20 0 13 -7 20 -20 20 -13 0 -20 7 -20 20 0 17 -7 20 -40 20 -33 0 -40 3 -40
20 0 13 -7 20 -20 20 -13 0 -20 7 -20 20 0 13 -7 20 -20 20 -13 0 -20 7 -20
20 0 13 -7 20 -20 20 -13 0 -20 7 -20 20 0 13 -7 20 -20 20 -13 0 -20 7 -20
20 0 13 -7 20 -20 20 -13 0 -20 7 -20 20 0 13 -7 20 -20 20 -17 0 -20 7 -20
40 0 33 -3 40 -20 40 -17 0 -20 7 -20 40 0 33 -3 40 -20 40 -13 0 -20 7 -20
20 0 13 -7 20 -20 20 -13 0 -20 7 -20 20 0 13 -7 20 -20 20 -13 0 -20 7 -20
20 0 13 -7 20 -20 20 -17 0 -20 7 -20 40 0 33 -3 40 -20 40 -13 0 -20 7 -20
20 0 13 -7 20 -20 20 -13 0 -20 7 -20 20 0 13 -7 20 -20 20 -13 0 -20 7 -20
20 0 13 -7 20 -20 20 -13 0 -20 7 -20 20 0 13 -7 20 -20 20 -17 0 -20 7 -20
40 0 33 -3 40 -20 40 -13 0 -20 7 -20 20 0 13 -7 20 -20 20 -17 0 -20 7 -20
40 0 33 -3 40 -20 40 -17 0 -20 7 -20 40 0 33 -3 40 -20 40 -17 0 -20 7 -20
40 0 33 -3 40 -20 40 -17 0 -20 7 -20 40 0 33 -3 40 -20 40 -18 0 -20 7 -20
60 0 53 -2 60 -20 60 -18 0 -20 7 -20 80 0 73 -2 80 -20 80 -19 0 -20 7 -20
100 0 93 -1 100 -20 100 -19 0 -20 7 -20 140 0 133 1 140 20 140 19 0 20 7 20
100 0 93 -1 100 -20 100 -19 0 -20 7 -20 140 0 133 1 140 20 140 13 0 20 7 20
20 0 13 7 20 20 20 13 0 20 7 20 20 0 17 7 20 40 20 33 0 40 -3 40 -20 0 -13
7 -20 20 -20 13 0 20 -7 20 -20 0 -13 7 -20 20 -20 13 0 20 -7 20 -20 0 -13 7
-20 20 -20 13 0 20 -7 20 -20 0 -13 7 -20 20 -20 13 0 20 -7 20 -20 0 -13 7
-20 20 -20 17 0 20 -7 20 -40 l0 -40 40 0 c33 0 40 -3 40 -20 0 -13 7 -20 20
-20 13 0 20 -7 20 -20 0 -13 7 -20 20 -20 13 0 20 -7 20 -20 0 -13 7 -20 20
-20 13 0 20 -7 20 -20 0 -17 7 -20 40 -20 33 0 40 -3 40 -20 0 -13 7 -20 20
-20 13 0 20 -7 20 -20 0 -17 7 -20 40 -20 33 0 40 -3 40 -20 0 -17 7 -20 40
-20 33 0 40 -3 40 -20 0 -17 7 -20 40 -20 33 0 40 -3 40 -20 0 -13 7 -20 20
-20 13 0 20 -7 20 -20 0 -17 7 -20 40 -20 33 0 40 -3 40 -20 0 -13 7 -20 20
-20 13 0 20 -7 20 -20 0 -13 7 -20 20 -20 17 0 20 -7 20 -40 0 -33 3 -40 20
-40 17 0 20 -7 20 -40 0 -33 3 -40 20 -40 17 0 20 -7 20 -40 0 -33 3 -40 20
-40 17 0 20 -7 20 -40 0 -33 3 -40 20 -40 17 0 20 -7 20 -40 0 -33 3 -40 20
-40 13 0 20 -7 20 -20 0 -13 7 -20 20 -20 13 0 20 -7 20 -20 0 -13 7 -20 20
-20 17 0 20 7 20 40 0 33 -3 40 -20 40 -13 0 -20 7 -20 20 0 13 -7 20 -20 20
-17 0 -20 7 -20 40 0 33 -3 40 -20 40 -17 0 -20 7 -20 40 0 33 -3 40 -20 40
-18 0 -20 7 -20 60 0 53 -2 60 -20 60 -17 0 -20 7 -20 40 0 33 -3 40 -20 40
-18 0 -20 7 -20 80 0 73 -2 80 -20 80 -18 0 -20 7 -20 80 0 73 -2 80 -20 80
-19 0 -20 7 -20 120 0 113 -1 120 -20 120 -19 0 -20 7 -20 120 0 113 -1 120
-20 120 -19 0 -20 7 -20 160 0 153 -1 160 -20 160 -20 0 -20 7 -20 340 0 333
0 340 20 340 17 0 20 7 20 40 0 33 3 40 20 40 13 0 20 7 20 20 0 13 7 20 20
20 13 0 20 -7 20 -20z m4840 -640 c0 -13 7 -20 20 -20 13 0 20 -7 20 -20 0
-13 7 -20 20 -20 18 0 20 -7 20 -60 0 -53 -2 -60 -20 -60 -18 0 -20 -7 -20
-60 0 -53 2 -60 20 -60 19 0 20 -7 20 -220 0 -213 -1 -220 -20 -220 -19 0 -20
-7 -20 -100 0 -93 -1 -100 -20 -100 -18 0 -20 -7 -20 -60 0 -53 -2 -60 -20
-60 -18 0 -20 -7 -20 -60 0 -53 -2 -60 -20 -60 -17 0 -20 -7 -20 -40 0 -33 -3
-40 -20 -40 -18 0 -20 -7 -20 -60 0 -53 -2 -60 -20 -60 -17 0 -20 -7 -20 -40
0 -33 -3 -40 -20 -40 -17 0 -20 -7 -20 -40 0 -33 -3 -40 -20 -40 -13 0 -20 -7
-20 -20 0 -13 -7 -20 -20 -20 -17 0 -20 -7 -20 -40 0 -33 -3 -40 -20 -40 -17
0 -20 -7 -20 -40 0 -33 -3 -40 -20 -40 -13 0 -20 -7 -20 -20 0 -13 -7 -20 -20
-20 -17 0 -20 -7 -20 -40 0 -33 -3 -40 -20 -40 -13 0 -20 -7 -20 -20 0 -13 -7
-20 -20 -20 -17 0 -20 -7 -20 -40 0 -33 -3 -40 -20 -40 -13 0 -20 -7 -20 -20
0 -13 -7 -20 -20 -20 -13 0 -20 -7 -20 -20 0 -13 -7 -20 -20 -20 -17 0 -20 -7
-20 -40 0 -33 -3 -40 -20 -40 -13 0 -20 -7 -20 -20 0 -13 -7 -20 -20 -20 -13
0 -20 -7 -20 -20 0 -13 -7 -20 -20 -20 -13 0 -20 -7 -20 -20 0 -13 -7 -20 -20
-20 -13 0 -20 -7 -20 -20 0 -13 -7 -20 -20 -20 -13 0 -20 -7 -20 -20 0 -17 -7
-20 -40 -20 -33 0 -40 -3 -40 -20 0 -13 -7 -20 -20 -20 -13 0 -20 -7 -20 -20
0 -17 -7 -20 -40 -20 -33 0 -40 -3 -40 -20 0 -17 -7 -20 -40 -20 -33 0 -40 -3
-40 -20 0 -18 -7 -20 -60 -20 -53 0 -60 -2 -60 -20 0 -18 -7 -20 -80 -20 -73
0 -80 -2 -80 -20 0 -19 -7 -20 -160 -20 -153 0 -160 -1 -160 -20 0 -17 -7 -20
-40 -20 -33 0 -40 3 -40 20 0 13 7 20 20 20 13 0 20 7 20 20 0 13 7 20 20 20
13 0 20 7 20 20 0 17 -7 20 -40 20 -33 0 -40 3 -40 20 0 13 7 20 20 20 18 0
20 7 20 80 0 73 2 80 20 80 19 0 20 7 20 140 0 133 1 140 20 140 19 0 20 7 20
120 0 113 1 120 20 120 18 0 20 7 20 60 0 53 2 60 20 60 18 0 20 7 20 80 0 73
2 80 20 80 17 0 20 7 20 40 0 33 3 40 20 40 13 0 20 7 20 20 0 13 7 20 20 20
17 0 20 7 20 40 0 33 3 40 20 40 13 0 20 7 20 20 0 13 7 20 20 20 17 0 20 7
20 40 0 33 3 40 20 40 13 0 20 7 20 20 0 13 7 20 20 20 17 0 20 7 20 40 0 33
3 40 20 40 17 0 20 7 20 40 0 33 3 40 20 40 13 0 20 7 20 20 0 13 7 20 20 20
13 0 20 7 20 20 0 13 7 20 20 20 13 0 20 7 20 20 0 17 7 20 40 20 33 0 40 3
40 20 0 17 7 20 40 20 33 0 40 3 40 20 0 13 7 20 20 20 13 0 20 7 20 20 0 13
7 20 20 20 13 0 20 7 20 20 0 13 7 20 20 20 13 0 20 7 20 20 0 13 7 20 20 20
13 0 20 7 20 20 0 17 7 20 40 20 33 0 40 3 40 20 0 17 7 20 40 20 33 0 40 3
40 20 0 17 7 20 40 20 33 0 40 3 40 20 0 13 7 20 20 20 13 0 20 7 20 20 0 17
7 20 40 20 33 0 40 3 40 20 0 13 7 20 20 20 13 0 20 7 20 20 0 13 7 20 20 20
17 0 20 7 20 40 0 33 3 40 20 40 13 0 20 7 20 20 0 13 7 20 20 20 13 0 20 7
20 20 0 13 7 20 20 20 13 0 20 7 20 20 0 13 7 20 20 20 13 0 20 7 20 20 0 13
7 20 20 20 13 0 20 7 20 20 0 13 7 20 20 20 13 0 20 7 20 20 0 13 7 20 20 20
13 0 20 7 20 20 0 13 7 20 20 20 13 0 20 7 20 20 0 13 7 20 20 20 13 0 20 -7
20 -20z m320 -1960 c0 -13 7 -20 20 -20 13 0 20 -7 20 -20 0 -13 7 -20 20 -20
18 0 20 -7 20 -80 0 -73 2 -80 20 -80 20 0 20 -7 20 -560 0 -553 0 -560 -20
-560 -19 0 -20 -7 -20 -100 0 -93 -1 -100 -20 -100 -18 0 -20 -7 -20 -80 0
-73 -2 -80 -20 -80 -18 0 -20 -7 -20 -80 0 -73 -2 -80 -20 -80 -18 0 -20 -7
-20 -60 0 -53 -2 -60 -20 -60 -18 0 -20 -7 -20 -60 0 -53 -2 -60 -20 -60 -17
0 -20 -7 -20 -40 0 -33 -3 -40 -20 -40 -17 0 -20 -7 -20 -40 0 -33 -3 -40 -20
-40 -17 0 -20 -7 -20 -40 0 -33 -3 -40 -20 -40 -13 0 -20 -7 -20 -20 0 -13 -7
-20 -20 -20 -17 0 -20 -7 -20 -40 0 -33 -3 -40 -20 -40 -13 0 -20 -7 -20 -20
0 -13 -7 -20 -20 -20 -13 0 -20 -7 -20 -20 0 -17 -7 -20 -40 -20 -33 0 -40 -3
-40 -20 0 -17 -7 -20 -40 -20 -33 0 -40 -3 -40 -20 0 -18 -7 -20 -60 -20 -53
0 -60 -2 -60 -20 0 -18 -7 -20 -60 -20 -53 0 -60 -2 -60 -20 0 -13 -7 -20 -20
-20 -13 0 -20 -7 -20 -20 0 -18 -7 -20 -60 -20 -53 0 -60 -2 -60 -20 0 -17 -7
-20 -40 -20 -33 0 -40 -3 -40 -20 0 -17 -7 -20 -40 -20 -33 0 -40 -3 -40 -20
0 -18 -7 -20 -60 -20 -53 0 -60 -2 -60 -20 0 -17 -7 -20 -40 -20 -33 0 -40 -3
-40 -20 0 -17 -7 -20 -40 -20 -33 0 -40 -3 -40 -20 0 -17 -7 -20 -40 -20 -33
0 -40 3 -40 20 0 13 7 20 20 20 17 0 20 7 20 40 0 33 -3 40 -20 40 -13 0 -20
-7 -20 -20 0 -13 -7 -20 -20 -20 -13 0 -20 -7 -20 -20 0 -13 -7 -20 -20 -20
-19 0 -20 7 -20 140 0 133 1 140 20 140 19 0 20 7 20 120 0 113 1 120 20 120
19 0 20 7 20 120 0 113 1 120 20 120 18 0 20 7 20 80 0 73 2 80 20 80 18 0 20
7 20 80 0 73 2 80 20 80 18 0 20 7 20 80 0 73 2 80 20 80 18 0 20 7 20 60 0
53 2 60 20 60 18 0 20 7 20 60 0 53 2 60 20 60 17 0 20 7 20 40 0 33 3 40 20
40 17 0 20 7 20 40 0 33 3 40 20 40 17 0 20 7 20 40 0 33 3 40 20 40 13 0 20
7 20 20 0 13 7 20 20 20 13 0 20 7 20 20 0 13 7 20 20 20 13 0 20 7 20 20 0
13 7 20 20 20 13 0 20 7 20 20 0 13 7 20 20 20 13 0 20 7 20 20 0 13 7 20 20
20 17 0 20 7 20 40 0 33 3 40 20 40 13 0 20 7 20 20 0 13 7 20 20 20 17 0 20
7 20 40 0 33 3 40 20 40 17 0 20 7 20 40 0 33 3 40 20 40 13 0 20 7 20 20 0
13 7 20 20 20 17 0 20 7 20 40 0 33 3 40 20 40 13 0 20 7 20 20 0 17 7 20 40
20 33 0 40 3 40 20 0 13 7 20 20 20 13 0 20 7 20 20 0 13 7 20 20 20 13 0 20
7 20 20 0 17 7 20 40 20 33 0 40 3 40 20 0 13 7 20 20 20 13 0 20 7 20 20 0
13 7 20 20 20 13 0 20 7 20 20 0 13 7 20 20 20 17 0 20 7 20 40 0 33 3 40 20
40 17 0 20 7 20 40 0 33 3 40 20 40 17 0 20 7 20 40 0 33 3 40 20 40 17 0 20
7 20 40 0 33 3 40 20 40 13 0 20 7 20 20 0 18 7 20 60 20 53 0 60 -2 60 -20z
m-6760 -1000 c0 -18 7 -20 60 -20 53 0 60 -2 60 -20 0 -13 7 -20 20 -20 13 0
20 -7 20 -20 0 -13 7 -20 20 -20 13 0 20 -7 20 -20 0 -17 7 -20 40 -20 33 0
40 -3 40 -20 0 -19 7 -20 160 -20 153 0 160 1 160 20 0 19 7 20 160 20 153 0
160 -1 160 -20 0 -13 7 -20 20 -20 13 0 20 -7 20 -20 0 -17 7 -20 40 -20 33 0
40 -3 40 -20 0 -13 7 -20 20 -20 13 0 20 -7 20 -20 0 -13 7 -20 20 -20 13 0
20 -7 20 -20 0 -13 7 -20 20 -20 13 0 20 -7 20 -20 0 -17 7 -20 40 -20 33 0
40 -3 40 -20 0 -13 7 -20 20 -20 13 0 20 -7 20 -20 0 -13 7 -20 20 -20 13 0
20 -7 20 -20 0 -17 7 -20 40 -20 33 0 40 -3 40 -20 0 -17 7 -20 40 -20 33 0
40 -3 40 -20 0 -17 7 -20 40 -20 33 0 40 -3 40 -20 0 -17 7 -20 40 -20 33 0
40 -3 40 -20 0 -13 7 -20 20 -20 13 0 20 -7 20 -20 0 -13 7 -20 20 -20 13 0
20 -7 20 -20 0 -13 7 -20 20 -20 13 0 20 -7 20 -20 0 -13 7 -20 20 -20 13 0
20 -7 20 -20 0 -13 7 -20 20 -20 13 0 20 -7 20 -20 0 -13 7 -20 20 -20 13 0
20 -7 20 -20 0 -13 7 -20 20 -20 13 0 20 -7 20 -20 0 -13 7 -20 20 -20 13 0
20 -7 20 -20 0 -17 7 -20 40 -20 33 0 40 -3 40 -20 0 -13 7 -20 20 -20 17 0
20 -7 20 -40 0 -33 3 -40 20 -40 13 0 20 -7 20 -20 0 -13 7 -20 20 -20 13 0
20 -7 20 -20 0 -13 7 -20 20 -20 17 0 20 -7 20 -40 0 -33 3 -40 20 -40 17 0
20 -7 20 -40 0 -33 3 -40 20 -40 17 0 20 -7 20 -40 0 -33 3 -40 20 -40 17 0
20 -7 20 -40 0 -33 3 -40 20 -40 13 0 20 -7 20 -20 0 -13 7 -20 20 -20 17 0
20 -7 20 -40 0 -33 3 -40 20 -40 17 0 20 -7 20 -40 0 -33 3 -40 20 -40 18 0
20 -7 20 -60 0 -53 2 -60 20 -60 17 0 20 -7 20 -40 0 -33 3 -40 20 -40 18 0
20 -7 20 -80 0 -73 2 -80 20 -80 18 0 20 -7 20 -80 0 -73 2 -80 20 -80 18 0
20 -7 20 -80 0 -73 -2 -80 -20 -80 -13 0 -20 -7 -20 -20 0 -13 7 -20 20 -20
13 0 20 -7 20 -20 0 -18 -7 -20 -80 -20 -73 0 -80 2 -80 20 0 19 -7 20 -140
20 -133 0 -140 1 -140 20 0 18 -7 20 -80 20 -73 0 -80 2 -80 20 0 18 -7 20
-60 20 -53 0 -60 2 -60 20 0 17 -7 20 -40 20 -33 0 -40 3 -40 20 0 17 -7 20
-40 20 -33 0 -40 3 -40 20 0 13 -7 20 -20 20 -13 0 -20 7 -20 20 0 17 -7 20
-40 20 -33 0 -40 3 -40 20 0 13 -7 20 -20 20 -13 0 -20 7 -20 20 0 17 -7 20
-40 20 -33 0 -40 3 -40 20 0 13 -7 20 -20 20 -13 0 -20 7 -20 20 0 17 -7 20
-40 20 -33 0 -40 3 -40 20 0 17 -7 20 -40 20 -33 0 -40 3 -40 20 0 13 -7 20
-20 20 -13 0 -20 7 -20 20 0 17 -7 20 -40 20 -33 0 -40 3 -40 20 0 17 -7 20
-40 20 -33 0 -40 3 -40 20 0 17 -7 20 -40 20 -33 0 -40 3 -40 20 0 17 -7 20
-40 20 -33 0 -40 3 -40 20 0 13 -7 20 -20 20 -13 0 -20 7 -20 20 0 17 -7 20
-40 20 -33 0 -40 3 -40 20 0 13 -7 20 -20 20 -13 0 -20 7 -20 20 0 13 -7 20
-20 20 -17 0 -20 7 -20 40 0 33 -3 40 -20 40 -17 0 -20 7 -20 40 0 33 -3 40
-20 40 -17 0 -20 7 -20 40 0 33 -3 40 -20 40 -13 0 -20 7 -20 20 0 13 -7 20
-20 20 -17 0 -20 7 -20 40 0 33 -3 40 -20 40 -13 0 -20 7 -20 20 0 13 -7 20
-20 20 -13 0 -20 7 -20 20 0 13 -7 20 -20 20 -13 0 -20 7 -20 20 0 13 -7 20
-20 20 -13 0 -20 7 -20 20 0 13 -7 20 -20 20 -13 0 -20 7 -20 20 0 13 -7 20
-20 20 -13 0 -20 7 -20 20 0 13 -7 20 -20 20 -13 0 -20 7 -20 20 0 13 -7 20
-20 20 -17 0 -20 7 -20 40 0 33 -3 40 -20 40 -13 0 -20 7 -20 20 0 13 -7 20
-20 20 -13 0 -20 7 -20 20 0 13 -7 20 -20 20 -17 0 -20 7 -20 40 0 33 -3 40
-20 40 -17 0 -20 7 -20 40 0 33 -3 40 -20 40 -17 0 -20 7 -20 40 0 33 -3 40
-20 40 -17 0 -20 7 -20 40 0 33 -3 40 -20 40 -17 0 -20 7 -20 40 0 33 -3 40
-20 40 -17 0 -20 7 -20 40 0 33 -3 40 -20 40 -19 0 -20 7 -20 100 0 93 -1 100
-20 100 -13 0 -20 7 -20 20 0 13 7 20 20 20 17 0 20 7 20 40 0 33 3 40 20 40
13 0 20 7 20 20 0 13 7 20 20 20 13 0 20 -7 20 -20z m6720 -2480 c0 -13 7 -20
20 -20 19 0 20 -7 20 -220 0 -213 -1 -220 -20 -220 -18 0 -20 -7 -20 -60 0
-53 -2 -60 -20 -60 -18 0 -20 -7 -20 -60 0 -53 -2 -60 -20 -60 -17 0 -20 -7
-20 -40 0 -33 -3 -40 -20 -40 -17 0 -20 -7 -20 -40 0 -33 -3 -40 -20 -40 -13
0 -20 -7 -20 -20 0 -13 -7 -20 -20 -20 -17 0 -20 -7 -20 -40 0 -33 -3 -40 -20
-40 -13 0 -20 -7 -20 -20 0 -13 -7 -20 -20 -20 -13 0 -20 -7 -20 -20 0 -13 -7
-20 -20 -20 -13 0 -20 -7 -20 -20 0 -13 -7 -20 -20 -20 -13 0 -20 -7 -20 -20
0 -13 -7 -20 -20 -20 -13 0 -20 -7 -20 -20 0 -17 -7 -20 -40 -20 -33 0 -40 -3
-40 -20 0 -13 -7 -20 -20 -20 -13 0 -20 -7 -20 -20 0 -13 -7 -20 -20 -20 -13
0 -20 -7 -20 -20 0 -13 -7 -20 -20 -20 -13 0 -20 -7 -20 -20 0 -18 -7 -20 -60
-20 -53 0 -60 -2 -60 -20 0 -19 -7 -20 -100 -20 -93 0 -100 -1 -100 -20 0 -17
-7 -20 -40 -20 -33 0 -40 -3 -40 -20 0 -17 -7 -20 -40 -20 -33 0 -40 -3 -40
-20 0 -17 -7 -20 -40 -20 -33 0 -40 -3 -40 -20 0 -19 -7 -20 -160 -20 -153 0
-160 1 -160 20 0 17 -7 20 -40 20 -33 0 -40 3 -40 20 0 18 -7 20 -60 20 -53 0
-60 2 -60 20 0 17 -7 20 -40 20 -33 0 -40 3 -40 20 0 19 -7 20 -100 20 -93 0
-100 1 -100 20 0 19 -7 20 -180 20 -173 0 -180 1 -180 20 0 13 7 20 20 20 13
0 20 7 20 20 0 17 7 20 40 20 33 0 40 3 40 20 0 17 -7 20 -40 20 -33 0 -40 3
-40 20 0 13 7 20 20 20 13 0 20 7 20 20 0 13 7 20 20 20 13 0 20 7 20 20 0 13
7 20 20 20 17 0 20 7 20 40 0 33 3 40 20 40 13 0 20 7 20 20 0 13 7 20 20 20
13 0 20 7 20 20 0 17 7 20 40 20 33 0 40 3 40 20 0 18 7 20 60 20 53 0 60 2
60 20 0 18 7 20 80 20 73 0 80 2 80 20 0 17 7 20 40 20 33 0 40 3 40 20 0 17
7 20 40 20 33 0 40 3 40 20 0 13 7 20 20 20 13 0 20 7 20 20 0 13 7 20 20 20
13 0 20 7 20 20 0 17 7 20 40 20 33 0 40 3 40 20 0 18 7 20 80 20 73 0 80 2
80 20 0 19 7 20 100 20 93 0 100 1 100 20 0 18 7 20 60 20 53 0 60 2 60 20 0
18 7 20 60 20 53 0 60 2 60 20 0 18 7 20 60 20 53 0 60 2 60 20 0 17 7 20 40
20 33 0 40 3 40 20 0 17 7 20 40 20 33 0 40 3 40 20 0 17 7 20 40 20 33 0 40
3 40 20 0 13 7 20 20 20 13 0 20 7 20 20 0 17 7 20 40 20 33 0 40 3 40 20 0
13 7 20 20 20 13 0 20 7 20 20 0 13 7 20 20 20 13 0 20 7 20 20 0 13 7 20 20
20 13 0 20 7 20 20 0 13 7 20 20 20 13 0 20 7 20 20 0 13 7 20 20 20 13 0 20
7 20 20 0 13 7 20 20 20 13 0 20 7 20 20 0 17 7 20 40 20 33 0 40 -3 40 -20z
m-4080 -880 c0 -19 7 -20 120 -20 113 0 120 -1 120 -20 0 -18 7 -20 60 -20 53
0 60 -2 60 -20 0 -18 7 -20 60 -20 53 0 60 -2 60 -20 0 -13 7 -20 20 -20 13 0
20 -7 20 -20 0 -13 7 -20 20 -20 13 0 20 -7 20 -20 0 -13 7 -20 20 -20 13 0
20 -7 20 -20 0 -13 7 -20 20 -20 17 0 20 -7 20 -40 0 -33 3 -40 20 -40 13 0
20 -7 20 -20 0 -13 7 -20 20 -20 13 0 20 -7 20 -20 0 -13 7 -20 20 -20 17 0
20 -7 20 -40 0 -33 3 -40 20 -40 17 0 20 -7 20 -40 0 -33 3 -40 20 -40 18 0
20 -7 20 -60 0 -53 2 -60 20 -60 17 0 20 -7 20 -40 0 -33 -3 -40 -20 -40 -13
0 -20 7 -20 20 0 17 -7 20 -40 20 -33 0 -40 -3 -40 -20 0 -13 7 -20 20 -20 13
0 20 -7 20 -20 0 -17 7 -20 40 -20 33 0 40 -3 40 -20 0 -13 7 -20 20 -20 13 0
20 -7 20 -20 0 -19 -7 -20 -100 -20 -93 0 -100 1 -100 20 0 19 -7 20 -120 20
-113 0 -120 1 -120 20 0 18 -7 20 -60 20 -53 0 -60 2 -60 20 0 17 -7 20 -40
20 -33 0 -40 3 -40 20 0 13 -7 20 -20 20 -13 0 -20 7 -20 20 0 17 -7 20 -40
20 -33 0 -40 3 -40 20 0 17 -7 20 -40 20 -33 0 -40 3 -40 20 0 17 -7 20 -40
20 -33 0 -40 3 -40 20 0 19 -7 20 -120 20 -113 0 -120 1 -120 20 0 13 -7 20
-20 20 -13 0 -20 7 -20 20 0 13 -7 20 -20 20 -13 0 -20 7 -20 20 0 13 -7 20
-20 20 -13 0 -20 7 -20 20 0 13 -7 20 -20 20 -13 0 -20 7 -20 20 0 13 -7 20
-20 20 -13 0 -20 7 -20 20 0 13 -7 20 -20 20 -13 0 -20 7 -20 20 0 13 -7 20
-20 20 -13 0 -20 7 -20 20 0 13 -7 20 -20 20 -13 0 -20 7 -20 20 0 13 -7 20
-20 20 -13 0 -20 7 -20 20 0 17 -7 20 -40 20 -33 0 -40 3 -40 20 0 13 -7 20
-20 20 -13 0 -20 7 -20 20 0 17 -7 20 -40 20 -33 0 -40 3 -40 20 0 13 7 20 20
20 13 0 20 7 20 20 0 18 7 20 60 20 53 0 60 2 60 20 0 20 7 20 320 20 313 0
320 0 320 -20z m1760 -280 c0 -13 -7 -20 -20 -20 -13 0 -20 7 -20 20 0 13 7
20 20 20 13 0 20 -7 20 -20z"/>
<path d="M6980 11960 c0 -73 -2 -80 -20 -80 -19 0 -20 -7 -20 -220 0 -213 1
-220 20 -220 19 0 20 7 20 220 0 213 1 220 20 220 18 0 20 7 20 80 0 73 -2 80
-20 80 -18 0 -20 -7 -20 -80z"/>
<path d="M5900 11600 c0 -33 3 -40 20 -40 13 0 20 -7 20 -20 0 -13 7 -20 20
-20 13 0 20 -7 20 -20 0 -13 7 -20 20 -20 13 0 20 -7 20 -20 0 -13 7 -20 20
-20 13 0 20 -7 20 -20 0 -13 7 -20 20 -20 13 0 20 -7 20 -20 0 -13 7 -20 20
-20 13 0 20 -7 20 -20 0 -13 7 -20 20 -20 13 0 20 -7 20 -20 0 -13 7 -20 20
-20 13 0 20 -7 20 -20 0 -13 7 -20 20 -20 13 0 20 -7 20 -20 0 -13 7 -20 20
-20 13 0 20 -7 20 -20 0 -13 7 -20 20 -20 13 0 20 -7 20 -20 0 -17 7 -20 40
-20 33 0 40 -3 40 -20 0 -13 7 -20 20 -20 13 0 20 7 20 20 0 13 -7 20 -20 20
-13 0 -20 7 -20 20 0 13 -7 20 -20 20 -13 0 -20 7 -20 20 0 13 -7 20 -20 20
-13 0 -20 7 -20 20 0 13 -7 20 -20 20 -13 0 -20 7 -20 20 0 13 -7 20 -20 20
-13 0 -20 7 -20 20 0 13 -7 20 -20 20 -13 0 -20 7 -20 20 0 13 -7 20 -20 20
-13 0 -20 7 -20 20 0 13 -7 20 -20 20 -13 0 -20 7 -20 20 0 13 -7 20 -20 20
-13 0 -20 7 -20 20 0 13 -7 20 -20 20 -13 0 -20 7 -20 20 0 13 -7 20 -20 20
-13 0 -20 7 -20 20 0 13 -7 20 -20 20 -13 0 -20 7 -20 20 0 13 -7 20 -20 20
-13 0 -20 7 -20 20 0 13 -7 20 -20 20 -17 0 -20 -7 -20 -40z"/>
<path d="M8220 11540 c0 -13 -7 -20 -20 -20 -17 0 -20 -7 -20 -40 0 -33 -3
-40 -20 -40 -13 0 -20 -7 -20 -20 0 -13 -7 -20 -20 -20 -17 0 -20 -7 -20 -40
0 -33 -3 -40 -20 -40 -13 0 -20 -7 -20 -20 0 -13 -7 -20 -20 -20 -13 0 -20 -7
-20 -20 0 -13 -7 -20 -20 -20 -13 0 -20 -7 -20 -20 0 -13 -7 -20 -20 -20 -13
0 -20 -7 -20 -20 0 -13 -7 -20 -20 -20 -13 0 -20 -7 -20 -20 0 -13 -7 -20 -20
-20 -13 0 -20 -7 -20 -20 0 -13 -7 -20 -20 -20 -13 0 -20 -7 -20 -20 0 -13 -7
-20 -20 -20 -13 0 -20 -7 -20 -20 0 -13 -7 -20 -20 -20 -13 0 -20 -7 -20 -20
0 -17 -7 -20 -40 -20 -33 0 -40 -3 -40 -20 0 -13 -7 -20 -20 -20 -13 0 -20 -7
-20 -20 0 -13 7 -20 20 -20 13 0 20 7 20 20 0 17 7 20 40 20 33 0 40 3 40 20
0 13 7 20 20 20 13 0 20 7 20 20 0 13 7 20 20 20 13 0 20 7 20 20 0 13 7 20
20 20 13 0 20 7 20 20 0 13 7 20 20 20 13 0 20 7 20 20 0 13 7 20 20 20 13 0
20 7 20 20 0 13 7 20 20 20 13 0 20 7 20 20 0 13 7 20 20 20 13 0 20 7 20 20
0 13 7 20 20 20 13 0 20 7 20 20 0 13 7 20 20 20 13 0 20 7 20 20 0 13 7 20
20 20 17 0 20 7 20 40 0 33 3 40 20 40 13 0 20 7 20 20 0 13 7 20 20 20 17 0
20 7 20 40 0 33 3 40 20 40 13 0 20 7 20 20 0 13 -7 20 -20 20 -13 0 -20 -7
-20 -20z"/>
<path d="M6980 11300 c0 -93 1 -100 20 -100 18 0 20 -7 20 -80 0 -73 2 -80 20
-80 18 0 20 -7 20 -80 0 -73 2 -80 20 -80 18 0 20 -7 20 -60 0 -53 2 -60 20
-60 18 0 20 7 20 60 0 53 -2 60 -20 60 -18 0 -20 7 -20 80 0 73 -2 80 -20 80
-18 0 -20 7 -20 80 0 73 -2 80 -20 80 -19 0 -20 7 -20 100 0 93 -1 100 -20
100 -19 0 -20 -7 -20 -100z"/>
<path d="M5020 9660 c0 -53 2 -60 20 -60 17 0 20 -7 20 -40 0 -33 3 -40 20
-40 18 0 20 -7 20 -60 0 -53 2 -60 20 -60 17 0 20 -7 20 -40 0 -33 3 -40 20
-40 18 0 20 -7 20 -60 0 -53 2 -60 20 -60 17 0 20 -7 20 -40 0 -33 3 -40 20
-40 17 0 20 -7 20 -40 0 -33 3 -40 20 -40 17 0 20 -7 20 -40 0 -33 3 -40 20
-40 17 0 20 -7 20 -40 0 -33 3 -40 20 -40 17 0 20 -7 20 -40 0 -33 3 -40 20
-40 18 0 20 -7 20 -60 0 -53 2 -60 20 -60 13 0 20 -7 20 -20 0 -13 7 -20 20
-20 17 0 20 -7 20 -40 0 -33 3 -40 20 -40 17 0 20 -7 20 -40 0 -33 3 -40 20
-40 17 0 20 -7 20 -40 0 -33 3 -40 20 -40 17 0 20 -7 20 -40 0 -33 3 -40 20
-40 13 0 20 -7 20 -20 0 -13 7 -20 20 -20 17 0 20 -7 20 -40 0 -33 3 -40 20
-40 13 0 20 -7 20 -20 0 -13 7 -20 20 -20 17 0 20 -7 20 -40 0 -33 3 -40 20
-40 13 0 20 -7 20 -20 0 -13 7 -20 20 -20 17 0 20 -7 20 -40 0 -33 3 -40 20
-40 13 0 20 -7 20 -20 0 -13 7 -20 20 -20 13 0 20 -7 20 -20 0 -13 7 -20 20
-20 17 0 20 -7 20 -40 0 -33 3 -40 20 -40 13 0 20 -7 20 -20 0 -13 7 -20 20
-20 13 0 20 -7 20 -20 0 -13 7 -20 20 -20 13 0 20 -7 20 -20 0 -13 7 -20 20
-20 13 0 20 -7 20 -20 0 -13 7 -20 20 -20 13 0 20 7 20 20 0 13 -7 20 -20 20
-13 0 -20 7 -20 20 0 13 -7 20 -20 20 -13 0 -20 7 -20 20 0 13 -7 20 -20 20
-17 0 -20 7 -20 40 0 33 -3 40 -20 40 -13 0 -20 7 -20 20 0 13 -7 20 -20 20
-13 0 -20 7 -20 20 0 13 -7 20 -20 20 -17 0 -20 7 -20 40 0 33 -3 40 -20 40
-13 0 -20 7 -20 20 0 13 -7 20 -20 20 -13 0 -20 7 -20 20 0 13 -7 20 -20 20
-17 0 -20 7 -20 40 0 33 -3 40 -20 40 -13 0 -20 7 -20 20 0 13 -7 20 -20 20
-17 0 -20 7 -20 40 0 33 -3 40 -20 40 -17 0 -20 7 -20 40 0 33 -3 40 -20 40
-13 0 -20 7 -20 20 0 13 -7 20 -20 20 -17 0 -20 7 -20 40 0 33 -3 40 -20 40
-17 0 -20 7 -20 40 0 33 -3 40 -20 40 -17 0 -20 7 -20 40 0 33 -3 40 -20 40
-17 0 -20 7 -20 40 0 33 -3 40 -20 40 -17 0 -20 7 -20 40 0 33 -3 40 -20 40
-17 0 -20 7 -20 40 0 33 -3 40 -20 40 -17 0 -20 7 -20 40 0 33 -3 40 -20 40
-17 0 -20 7 -20 40 0 33 -3 40 -20 40 -17 0 -20 7 -20 40 0 33 -3 40 -20 40
-17 0 -20 7 -20 40 0 33 -3 40 -20 40 -18 0 -20 7 -20 60 0 53 -2 60 -20 60
-17 0 -20 7 -20 40 0 33 -3 40 -20 40 -18 0 -20 7 -20 60 0 53 -2 60 -20 60
-17 0 -20 7 -20 40 0 33 -3 40 -20 40 -18 0 -20 7 -20 60 0 53 -2 60 -20 60
-18 0 -20 -7 -20 -60z"/>
<path d="M5140 8160 c0 -33 3 -40 20 -40 13 0 20 -7 20 -20 0 -13 7 -20 20
-20 13 0 20 -7 20 -20 0 -13 7 -20 20 -20 13 0 20 -7 20 -20 0 -13 7 -20 20
-20 13 0 20 -7 20 -20 0 -13 7 -20 20 -20 13 0 20 -7 20 -20 0 -13 7 -20 20
-20 13 0 20 -7 20 -20 0 -13 7 -20 20 -20 13 0 20 -7 20 -20 0 -13 7 -20 20
-20 13 0 20 -7 20 -20 0 -13 7 -20 20 -20 13 0 20 -7 20 -20 0 -13 7 -20 20
-20 13 0 20 -7 20 -20 0 -13 7 -20 20 -20 17 0 20 -7 20 -40 0 -33 3 -40 20
-40 13 0 20 -7 20 -20 0 -13 7 -20 20 -20 17 0 20 7 20 40 0 33 3 40 20 40 13
0 20 7 20 20 0 13 -7 20 -20 20 -13 0 -20 7 -20 20 0 17 -7 20 -40 20 -33 0
-40 3 -40 20 0 13 -7 20 -20 20 -13 0 -20 7 -20 20 0 13 -7 20 -20 20 -13 0
-20 7 -20 20 0 13 -7 20 -20 20 -13 0 -20 7 -20 20 0 13 -7 20 -20 20 -13 0
-20 7 -20 20 0 13 -7 20 -20 20 -13 0 -20 7 -20 20 0 13 -7 20 -20 20 -13 0
-20 7 -20 20 0 13 -7 20 -20 20 -13 0 -20 7 -20 20 0 13 -7 20 -20 20 -13 0
-20 7 -20 20 0 13 -7 20 -20 20 -13 0 -20 7 -20 20 0 13 -7 20 -20 20 -13 0
-20 7 -20 20 0 13 -7 20 -20 20 -17 0 -20 -7 -20 -40z"/>
<path d="M4460 8020 c0 -13 7 -20 20 -20 17 0 20 -7 20 -40 0 -33 3 -40 20
-40 13 0 20 -7 20 -20 0 -13 7 -20 20 -20 17 0 20 -7 20 -40 0 -33 3 -40 20
-40 13 0 20 -7 20 -20 0 -13 7 -20 20 -20 13 0 20 -7 20 -20 0 -13 7 -20 20
-20 13 0 20 -7 20 -20 0 -13 7 -20 20 -20 13 0 20 -7 20 -20 0 -13 7 -20 20
-20 13 0 20 -7 20 -20 0 -13 7 -20 20 -20 13 0 20 -7 20 -20 0 -13 7 -20 20
-20 13 0 20 -7 20 -20 0 -13 7 -20 20 -20 17 0 20 -7 20 -40 0 -33 3 -40 20
-40 13 0 20 -7 20 -20 0 -13 7 -20 20 -20 13 0 20 -7 20 -20 0 -13 7 -20 20
-20 13 0 20 -7 20 -20 0 -13 7 -20 20 -20 13 0 20 -7 20 -20 0 -13 7 -20 20
-20 13 0 20 -7 20 -20 0 -13 7 -20 20 -20 13 0 20 -7 20 -20 0 -13 7 -20 20
-20 13 0 20 -7 20 -20 0 -13 7 -20 20 -20 13 0 20 -7 20 -20 0 -13 7 -20 20
-20 13 0 20 -7 20 -20 0 -13 7 -20 20 -20 13 0 20 -7 20 -20 0 -13 7 -20 20
-20 13 0 20 -7 20 -20 0 -13 7 -20 20 -20 13 0 20 -7 20 -20 0 -13 7 -20 20
-20 13 0 20 -7 20 -20 0 -13 7 -20 20 -20 13 0 20 -7 20 -20 0 -13 7 -20 20
-20 13 0 20 -7 20 -20 0 -13 7 -20 20 -20 13 0 20 -7 20 -20 0 -13 7 -20 20
-20 13 0 20 -7 20 -20 0 -13 7 -20 20 -20 13 0 20 7 20 20 0 13 -7 20 -20 20
-13 0 -20 7 -20 20 0 13 -7 20 -20 20 -13 0 -20 7 -20 20 0 13 -7 20 -20 20
-13 0 -20 7 -20 20 0 13 -7 20 -20 20 -13 0 -20 7 -20 20 0 13 -7 20 -20 20
-13 0 -20 7 -20 20 0 13 -7 20 -20 20 -13 0 -20 7 -20 20 0 13 -7 20 -20 20
-13 0 -20 7 -20 20 0 13 -7 20 -20 20 -13 0 -20 7 -20 20 0 13 -7 20 -20 20
-13 0 -20 7 -20 20 0 13 -7 20 -20 20 -13 0 -20 7 -20 20 0 13 -7 20 -20 20
-13 0 -20 7 -20 20 0 13 -7 20 -20 20 -13 0 -20 7 -20 20 0 13 -7 20 -20 20
-13 0 -20 7 -20 20 0 13 -7 20 -20 20 -13 0 -20 7 -20 20 0 13 -7 20 -20 20
-17 0 -20 7 -20 40 0 33 -3 40 -20 40 -13 0 -20 7 -20 20 0 13 -7 20 -20 20
-13 0 -20 7 -20 20 0 13 -7 20 -20 20 -13 0 -20 7 -20 20 0 13 -7 20 -20 20
-13 0 -20 7 -20 20 0 13 -7 20 -20 20 -13 0 -20 7 -20 20 0 13 -7 20 -20 20
-13 0 -20 7 -20 20 0 13 -7 20 -20 20 -13 0 -20 7 -20 20 0 13 -7 20 -20 20
-17 0 -20 7 -20 40 0 33 -3 40 -20 40 -13 0 -20 7 -20 20 0 13 -7 20 -20 20
-13 0 -20 7 -20 20 0 13 -7 20 -20 20 -13 0 -20 7 -20 20 0 13 -7 20 -20 20
-17 0 -20 7 -20 40 0 33 -3 40 -20 40 -13 0 -20 7 -20 20 0 13 -7 20 -20 20
-13 0 -20 -7 -20 -20z"/>
<path d="M9060 8780 c0 -13 -7 -20 -20 -20 -13 0 -20 -7 -20 -20 0 -13 -7 -20
-20 -20 -17 0 -20 -7 -20 -40 0 -33 -3 -40 -20 -40 -17 0 -20 -7 -20 -40 0
-33 -3 -40 -20 -40 -13 0 -20 -7 -20 -20 0 -13 -7 -20 -20 -20 -13 0 -20 -7
-20 -20 0 -13 -7 -20 -20 -20 -17 0 -20 -7 -20 -40 0 -33 -3 -40 -20 -40 -13
0 -20 -7 -20 -20 0 -13 -7 -20 -20 -20 -13 0 -20 -7 -20 -20 0 -13 -7 -20 -20
-20 -13 0 -20 -7 -20 -20 0 -13 -7 -20 -20 -20 -13 0 -20 -7 -20 -20 0 -13 -7
-20 -20 -20 -13 0 -20 -7 -20 -20 0 -13 -7 -20 -20 -20 -17 0 -20 -7 -20 -40
0 -33 -3 -40 -20 -40 -13 0 -20 -7 -20 -20 0 -13 -7 -20 -20 -20 -13 0 -20 -7
-20 -20 0 -13 -7 -20 -20 -20 -13 0 -20 -7 -20 -20 0 -13 -7 -20 -20 -20 -17
0 -20 -7 -20 -40 0 -33 -3 -40 -20 -40 -13 0 -20 -7 -20 -20 0 -13 -7 -20 -20
-20 -13 0 -20 -7 -20 -20 0 -13 -7 -20 -20 -20 -13 0 -20 -7 -20 -20 0 -13 -7
-20 -20 -20 -13 0 -20 -7 -20 -20 0 -13 -7 -20 -20 -20 -13 0 -20 -7 -20 -20
0 -13 -7 -20 -20 -20 -17 0 -20 -7 -20 -40 0 -33 -3 -40 -20 -40 -13 0 -20 -7
-20 -20 0 -13 -7 -20 -20 -20 -13 0 -20 -7 -20 -20 0 -13 -7 -20 -20 -20 -13
0 -20 -7 -20 -20 0 -13 -7 -20 -20 -20 -13 0 -20 -7 -20 -20 0 -13 -7 -20 -20
-20 -13 0 -20 -7 -20 -20 0 -13 7 -20 20 -20 13 0 20 7 20 20 0 13 7 20 20 20
13 0 20 7 20 20 0 13 7 20 20 20 13 0 20 7 20 20 0 13 7 20 20 20 13 0 20 7
20 20 0 13 7 20 20 20 13 0 20 7 20 20 0 13 7 20 20 20 13 0 20 7 20 20 0 13
7 20 20 20 13 0 20 7 20 20 0 13 7 20 20 20 13 0 20 7 20 20 0 13 7 20 20 20
17 0 20 7 20 40 0 33 3 40 20 40 13 0 20 7 20 20 0 13 7 20 20 20 13 0 20 7
20 20 0 13 7 20 20 20 13 0 20 7 20 20 0 13 7 20 20 20 17 0 20 7 20 40 0 33
3 40 20 40 13 0 20 7 20 20 0 13 7 20 20 20 13 0 20 7 20 20 0 13 7 20 20 20
13 0 20 7 20 20 0 13 7 20 20 20 13 0 20 7 20 20 0 13 7 20 20 20 17 0 20 7
20 40 0 33 3 40 20 40 13 0 20 7 20 20 0 13 7 20 20 20 13 0 20 7 20 20 0 13
7 20 20 20 13 0 20 7 20 20 0 13 7 20 20 20 17 0 20 7 20 40 0 33 3 40 20 40
13 0 20 7 20 20 0 13 7 20 20 20 13 0 20 7 20 20 0 13 7 20 20 20 17 0 20 7
20 40 0 33 3 40 20 40 13 0 20 7 20 20 0 13 7 20 20 20 17 0 20 7 20 40 0 33
3 40 20 40 13 0 20 7 20 20 0 13 -7 20 -20 20 -13 0 -20 -7 -20 -20z"/>
<path d="M9580 6760 c0 -33 -3 -40 -20 -40 -18 0 -20 -7 -20 -60 0 -53 -2 -60
-20 -60 -18 0 -20 -7 -20 -60 0 -53 -2 -60 -20 -60 -17 0 -20 -7 -20 -40 0
-33 -3 -40 -20 -40 -17 0 -20 -7 -20 -40 0 -33 -3 -40 -20 -40 -17 0 -20 -7
-20 -40 0 -33 -3 -40 -20 -40 -13 0 -20 -7 -20 -20 0 -13 -7 -20 -20 -20 -17
0 -20 -7 -20 -40 0 -33 -3 -40 -20 -40 -17 0 -20 -7 -20 -40 0 -33 -3 -40 -20
-40 -17 0 -20 -7 -20 -40 0 -33 -3 -40 -20 -40 -13 0 -20 -7 -20 -20 0 -13 -7
-20 -20 -20 -17 0 -20 -7 -20 -40 0 -33 -3 -40 -20 -40 -13 0 -20 -7 -20 -20
0 -13 -7 -20 -20 -20 -17 0 -20 -7 -20 -40 0 -33 -3 -40 -20 -40 -13 0 -20 -7
-20 -20 0 -13 -7 -20 -20 -20 -17 0 -20 -7 -20 -40 0 -33 -3 -40 -20 -40 -13
0 -20 -7 -20 -20 0 -13 -7 -20 -20 -20 -13 0 -20 -7 -20 -20 0 -13 -7 -20 -20
-20 -17 0 -20 -7 -20 -40 0 -33 -3 -40 -20 -40 -13 0 -20 -7 -20 -20 0 -13 -7
-20 -20 -20 -13 0 -20 -7 -20 -20 0 -13 -7 -20 -20 -20 -13 0 -20 -7 -20 -20
0 -13 -7 -20 -20 -20 -13 0 -20 -7 -20 -20 0 -13 -7 -20 -20 -20 -17 0 -20 -7
-20 -40 0 -33 -3 -40 -20 -40 -13 0 -20 -7 -20 -20 0 -13 -7 -20 -20 -20 -13
0 -20 -7 -20 -20 0 -13 7 -20 20 -20 13 0 20 7 20 20 0 13 7 20 20 20 13 0 20
7 20 20 0 13 7 20 20 20 13 0 20 7 20 20 0 13 7 20 20 20 13 0 20 7 20 20 0
13 7 20 20 20 17 0 20 7 20 40 0 33 3 40 20 40 13 0 20 7 20 20 0 13 7 20 20
20 13 0 20 7 20 20 0 13 7 20 20 20 13 0 20 7 20 20 0 13 7 20 20 20 17 0 20
7 20 40 0 33 3 40 20 40 13 0 20 7 20 20 0 13 7 20 20 20 13 0 20 7 20 20 0
13 7 20 20 20 17 0 20 7 20 40 0 33 3 40 20 40 13 0 20 7 20 20 0 13 7 20 20
20 17 0 20 7 20 40 0 33 3 40 20 40 17 0 20 7 20 40 0 33 3 40 20 40 13 0 20
7 20 20 0 13 7 20 20 20 17 0 20 7 20 40 0 33 3 40 20 40 17 0 20 7 20 40 0
33 3 40 20 40 17 0 20 7 20 40 0 33 3 40 20 40 13 0 20 7 20 20 0 13 7 20 20
20 17 0 20 7 20 40 0 33 3 40 20 40 17 0 20 7 20 40 0 33 3 40 20 40 17 0 20
7 20 40 0 33 3 40 20 40 18 0 20 7 20 60 0 53 2 60 20 60 18 0 20 7 20 60 0
53 2 60 20 60 17 0 20 7 20 40 0 33 -3 40 -20 40 -17 0 -20 -7 -20 -40z"/>
<path d="M4500 5900 c0 -13 7 -20 20 -20 13 0 20 -7 20 -20 0 -17 7 -20 40
-20 33 0 40 -3 40 -20 0 -13 7 -20 20 -20 13 0 20 -7 20 -20 0 -13 7 -20 20
-20 13 0 20 -7 20 -20 0 -13 7 -20 20 -20 13 0 20 -7 20 -20 0 -13 7 -20 20
-20 13 0 20 -7 20 -20 0 -13 7 -20 20 -20 13 0 20 -7 20 -20 0 -13 7 -20 20
-20 13 0 20 -7 20 -20 0 -13 7 -20 20 -20 17 0 20 -7 20 -40 0 -33 3 -40 20
-40 13 0 20 -7 20 -20 0 -13 7 -20 20 -20 13 0 20 -7 20 -20 0 -13 7 -20 20
-20 13 0 20 -7 20 -20 0 -13 7 -20 20 -20 13 0 20 -7 20 -20 0 -13 7 -20 20
-20 17 0 20 -7 20 -40 0 -33 3 -40 20 -40 13 0 20 -7 20 -20 0 -13 7 -20 20
-20 13 0 20 -7 20 -20 0 -13 7 -20 20 -20 13 0 20 -7 20 -20 0 -13 7 -20 20
-20 13 0 20 -7 20 -20 0 -13 7 -20 20 -20 13 0 20 -7 20 -20 0 -13 7 -20 20
-20 13 0 20 -7 20 -20 0 -13 7 -20 20 -20 13 0 20 -7 20 -20 0 -13 7 -20 20
-20 13 0 20 -7 20 -20 0 -13 7 -20 20 -20 13 0 20 -7 20 -20 0 -13 7 -20 20
-20 13 0 20 -7 20 -20 0 -13 7 -20 20 -20 13 0 20 -7 20 -20 0 -13 7 -20 20
-20 13 0 20 -7 20 -20 0 -13 7 -20 20 -20 13 0 20 -7 20 -20 0 -13 7 -20 20
-20 13 0 20 -7 20 -20 0 -13 7 -20 20 -20 13 0 20 -7 20 -20 0 -13 7 -20 20
-20 13 0 20 -7 20 -20 0 -17 7 -20 40 -20 33 0 40 3 40 20 0 13 -7 20 -20 20
-13 0 -20 7 -20 20 0 13 -7 20 -20 20 -13 0 -20 7 -20 20 0 13 -7 20 -20 20
-13 0 -20 7 -20 20 0 17 -7 20 -40 20 -33 0 -40 3 -40 20 0 13 -7 20 -20 20
-13 0 -20 7 -20 20 0 13 -7 20 -20 20 -13 0 -20 7 -20 20 0 13 -7 20 -20 20
-13 0 -20 7 -20 20 0 13 -7 20 -20 20 -13 0 -20 7 -20 20 0 13 -7 20 -20 20
-13 0 -20 7 -20 20 0 13 -7 20 -20 20 -13 0 -20 7 -20 20 0 13 -7 20 -20 20
-13 0 -20 7 -20 20 0 13 -7 20 -20 20 -13 0 -20 7 -20 20 0 13 -7 20 -20 20
-13 0 -20 7 -20 20 0 13 -7 20 -20 20 -17 0 -20 7 -20 40 0 33 -3 40 -20 40
-13 0 -20 7 -20 20 0 13 -7 20 -20 20 -13 0 -20 7 -20 20 0 13 -7 20 -20 20
-13 0 -20 7 -20 20 0 13 -7 20 -20 20 -13 0 -20 7 -20 20 0 13 -7 20 -20 20
-13 0 -20 7 -20 20 0 13 -7 20 -20 20 -17 0 -20 7 -20 40 0 33 -3 40 -20 40
-13 0 -20 7 -20 20 0 13 -7 20 -20 20 -13 0 -20 7 -20 20 0 13 -7 20 -20 20
-13 0 -20 7 -20 20 0 13 -7 20 -20 20 -13 0 -20 7 -20 20 0 13 -7 20 -20 20
-13 0 -20 7 -20 20 0 13 -7 20 -20 20 -13 0 -20 7 -20 20 0 13 -7 20 -20 20
-13 0 -20 7 -20 20 0 13 -7 20 -20 20 -13 0 -20 7 -20 20 0 13 -7 20 -20 20
-13 0 -20 7 -20 20 0 17 -7 20 -40 20 -33 0 -40 3 -40 20 0 13 -7 20 -20 20
-13 0 -20 -7 -20 -20z"/>
<path d="M9140 3540 c0 -13 -7 -20 -20 -20 -13 0 -20 -7 -20 -20 0 -18 -7 -20
-60 -20 -53 0 -60 -2 -60 -20 0 -20 -7 -20 -360 -20 -353 0 -360 0 -360 -20 0
-20 7 -20 360 -20 353 0 360 0 360 20 0 18 7 20 60 20 53 0 60 2 60 20 0 13 7
20 20 20 13 0 20 7 20 20 0 13 7 20 20 20 13 0 20 7 20 20 0 13 -7 20 -20 20
-13 0 -20 -7 -20 -20z"/>
<path d="M7980 3380 c0 -19 7 -20 100 -20 93 0 100 1 100 20 0 19 -7 20 -100
20 -93 0 -100 -1 -100 -20z"/>
<path d="M7820 3340 c0 -17 -7 -20 -40 -20 -33 0 -40 -3 -40 -20 0 -17 7 -20
40 -20 33 0 40 3 40 20 0 18 7 20 60 20 53 0 60 2 60 20 0 18 -7 20 -60 20
-53 0 -60 -2 -60 -20z"/>
<path d="M5980 3260 c0 -18 7 -20 80 -20 73 0 80 -2 80 -20 0 -17 7 -20 40
-20 33 0 40 -3 40 -20 0 -13 7 -20 20 -20 13 0 20 -7 20 -20 0 -17 7 -20 40
-20 33 0 40 -3 40 -20 0 -13 7 -20 20 -20 13 0 20 -7 20 -20 0 -13 7 -20 20
-20 13 0 20 -7 20 -20 0 -13 7 -20 20 -20 13 0 20 -7 20 -20 0 -13 7 -20 20
-20 13 0 20 -7 20 -20 0 -17 7 -20 40 -20 33 0 40 -3 40 -20 0 -13 7 -20 20
-20 13 0 20 7 20 20 0 13 -7 20 -20 20 -13 0 -20 7 -20 20 0 13 -7 20 -20 20
-13 0 -20 7 -20 20 0 17 -7 20 -40 20 -33 0 -40 3 -40 20 0 13 -7 20 -20 20
-13 0 -20 7 -20 20 0 13 -7 20 -20 20 -13 0 -20 7 -20 20 0 13 -7 20 -20 20
-13 0 -20 7 -20 20 0 17 -7 20 -40 20 -33 0 -40 3 -40 20 0 13 -7 20 -20 20
-13 0 -20 7 -20 20 0 17 -7 20 -40 20 -33 0 -40 3 -40 20 0 18 -7 20 -80 20
-73 0 -80 -2 -80 -20z"/>
<path d="M8420 13460 l0 -60 60 0 60 0 0 60 0 60 -60 0 -60 0 0 -60z"/>
</g>
</svg>
